%TF.GenerationSoftware,KiCad,Pcbnew,(7.0.0)*%
%TF.CreationDate,2023-06-30T12:19:52+08:00*%
%TF.ProjectId,SparqControlv3,53706172-7143-46f6-9e74-726f6c76332e,rev?*%
%TF.SameCoordinates,Original*%
%TF.FileFunction,Copper,L1,Top*%
%TF.FilePolarity,Positive*%
%FSLAX46Y46*%
G04 Gerber Fmt 4.6, Leading zero omitted, Abs format (unit mm)*
G04 Created by KiCad (PCBNEW (7.0.0)) date 2023-06-30 12:19:52*
%MOMM*%
%LPD*%
G01*
G04 APERTURE LIST*
%TA.AperFunction,ComponentPad*%
%ADD10C,1.524000*%
%TD*%
%TA.AperFunction,ComponentPad*%
%ADD11O,1.524000X3.048000*%
%TD*%
%TA.AperFunction,ComponentPad*%
%ADD12C,1.320800*%
%TD*%
%TA.AperFunction,ComponentPad*%
%ADD13O,2.641600X1.320800*%
%TD*%
%TA.AperFunction,ComponentPad*%
%ADD14O,1.320800X2.641600*%
%TD*%
%TA.AperFunction,ComponentPad*%
%ADD15C,2.184400*%
%TD*%
%TA.AperFunction,ComponentPad*%
%ADD16O,3.048000X1.524000*%
%TD*%
%TA.AperFunction,ComponentPad*%
%ADD17C,1.879600*%
%TD*%
%TA.AperFunction,ComponentPad*%
%ADD18O,4.191000X2.095500*%
%TD*%
%TA.AperFunction,ComponentPad*%
%ADD19C,1.676400*%
%TD*%
%TA.AperFunction,ViaPad*%
%ADD20C,0.800000*%
%TD*%
%TA.AperFunction,ViaPad*%
%ADD21C,0.863600*%
%TD*%
%TA.AperFunction,Conductor*%
%ADD22C,0.254000*%
%TD*%
G04 APERTURE END LIST*
D10*
%TO.P,CN4,36,36*%
%TO.N,+5V*%
X156698800Y-80589200D03*
%TO.P,CN4,35,35*%
X159238800Y-80589200D03*
%TO.P,CN4,34,34*%
%TO.N,/M22*%
X156698800Y-83129200D03*
%TO.P,CN4,32,32*%
%TO.N,/M24*%
X156698800Y-85669200D03*
%TO.P,CN4,30,30*%
%TO.N,/M26*%
X156698800Y-88209200D03*
%TO.P,CN4,33,33*%
%TO.N,/M23*%
X159238800Y-83129200D03*
%TO.P,CN4,31,31*%
%TO.N,/M25*%
X159238800Y-85669200D03*
%TO.P,CN4,29,29*%
%TO.N,/M27*%
X159238800Y-88209200D03*
%TO.P,CN4,28,28*%
%TO.N,/M28*%
X156698800Y-90749200D03*
%TO.P,CN4,27,27*%
%TO.N,/M29*%
X159238800Y-90749200D03*
%TO.P,CN4,26,26*%
%TO.N,/M30*%
X156698800Y-93289200D03*
%TO.P,CN4,24,24*%
%TO.N,/M32*%
X156698800Y-95829200D03*
%TO.P,CN4,22,22*%
%TO.N,/M34*%
X156698800Y-98369200D03*
%TO.P,CN4,20,20*%
%TO.N,/M36*%
X156698800Y-100909200D03*
%TO.P,CN4,18,18*%
%TO.N,/M38*%
X156698800Y-103449200D03*
%TO.P,CN4,16,16*%
%TO.N,/M40*%
X156698800Y-105989200D03*
%TO.P,CN4,25,25*%
%TO.N,/M31*%
X159238800Y-93289200D03*
%TO.P,CN4,23,23*%
%TO.N,/M33*%
X159238800Y-95829200D03*
%TO.P,CN4,21,21*%
%TO.N,/M35*%
X159238800Y-98369200D03*
%TO.P,CN4,19,19*%
%TO.N,/M37*%
X159238800Y-100909200D03*
%TO.P,CN4,17,17*%
%TO.N,/M39*%
X159238800Y-103449200D03*
%TO.P,CN4,15,15*%
%TO.N,/M41*%
X159238800Y-105989200D03*
%TO.P,CN4,14,14*%
%TO.N,/M42*%
X156698800Y-108529200D03*
%TO.P,CN4,13,13*%
%TO.N,/M43*%
X159238800Y-108529200D03*
%TO.P,CN4,12,12*%
%TO.N,/M44*%
X156698800Y-111069200D03*
%TO.P,CN4,10,10*%
%TO.N,/M46*%
X156698800Y-113609200D03*
%TO.P,CN4,8,8*%
%TO.N,/M48*%
X156698800Y-116149200D03*
%TO.P,CN4,6,6*%
%TO.N,/M50*%
X156698800Y-118689200D03*
%TO.P,CN4,4,4*%
%TO.N,/M52*%
X156698800Y-121229200D03*
%TO.P,CN4,2,2*%
%TO.N,GND*%
X156698800Y-123769200D03*
%TO.P,CN4,11,11*%
%TO.N,/M45*%
X159238800Y-111069200D03*
%TO.P,CN4,9,9*%
%TO.N,/M47*%
X159238800Y-113609200D03*
%TO.P,CN4,7,7*%
%TO.N,/M49*%
X159238800Y-116149200D03*
%TO.P,CN4,5,5*%
%TO.N,/M51*%
X159238800Y-118689200D03*
%TO.P,CN4,3,3*%
%TO.N,/M53*%
X159238800Y-121229200D03*
%TO.P,CN4,1,1*%
%TO.N,GND*%
X159238800Y-123769200D03*
%TD*%
D11*
%TO.P,CN7,8,8*%
%TO.N,/+VIN*%
X97618399Y-135122999D03*
%TO.P,CN7,7,7*%
%TO.N,GND*%
X95078399Y-135122999D03*
%TO.P,CN7,6,6*%
X92538399Y-135122999D03*
%TO.P,CN7,5,5*%
%TO.N,+5V*%
X89998399Y-135122999D03*
%TO.P,CN7,4,4*%
X87458399Y-135122999D03*
%TO.P,CN7,3,3*%
%TO.N,/+3.3V*%
X84918399Y-135122999D03*
%TO.P,CN7,2,2*%
X82378399Y-135122999D03*
%TO.P,CN7,1,1*%
%TO.N,/MRST*%
X79838399Y-135122999D03*
%TD*%
D12*
%TO.P,R4,2,2*%
%TO.N,/MA3*%
X199802600Y-75331400D03*
%TO.P,R4,1,1*%
%TO.N,/MAG_B*%
X207422600Y-75331400D03*
%TD*%
%TO.P,R5,2,2*%
%TO.N,GND*%
X189134600Y-75331400D03*
%TO.P,R5,1,1*%
%TO.N,/MA3*%
X196754600Y-75331400D03*
%TD*%
%TO.P,R6,2,2*%
%TO.N,/M39*%
X75596600Y-110053200D03*
%TO.P,R6,1,1*%
%TO.N,Net-(R6-Pad1)*%
X65436600Y-110053200D03*
%TD*%
D13*
%TO.P,T14,B,B*%
%TO.N,Net-(R67-Pad1)*%
X109933799Y-112985199D03*
%TO.P,T14,C,C*%
%TO.N,/MEL1*%
X109933799Y-115525199D03*
%TO.P,T14,E,E*%
%TO.N,GND*%
X109933799Y-110445199D03*
%TD*%
%TO.P,T15,B,B*%
%TO.N,Net-(R68-Pad1)*%
X94776799Y-113304799D03*
%TO.P,T15,C,C*%
%TO.N,/MEL2*%
X94776799Y-115844799D03*
%TO.P,T15,E,E*%
%TO.N,GND*%
X94776799Y-110764799D03*
%TD*%
D14*
%TO.P,T16,B,B*%
%TO.N,Net-(R69-Pad1)*%
X107839399Y-99665199D03*
%TO.P,T16,C,C*%
%TO.N,/MEL3*%
X105299399Y-99665199D03*
%TO.P,T16,E,E*%
%TO.N,GND*%
X110379399Y-99665199D03*
%TD*%
%TO.P,T17,B,B*%
%TO.N,Net-(R70-Pad1)*%
X127430799Y-99411199D03*
%TO.P,T17,C,C*%
%TO.N,/LIGHT1*%
X124890799Y-99411199D03*
%TO.P,T17,E,E*%
%TO.N,GND*%
X129970799Y-99411199D03*
%TD*%
D12*
%TO.P,R67,2,2*%
%TO.N,/M22*%
X105860800Y-108201800D03*
%TO.P,R67,1,1*%
%TO.N,Net-(R67-Pad1)*%
X105860800Y-118361800D03*
%TD*%
%TO.P,R68,2,2*%
%TO.N,/M23*%
X90820800Y-108201800D03*
%TO.P,R68,1,1*%
%TO.N,Net-(R68-Pad1)*%
X90820800Y-118361800D03*
%TD*%
%TO.P,R69,2,2*%
%TO.N,/M24*%
X112928600Y-95589400D03*
%TO.P,R69,1,1*%
%TO.N,Net-(R69-Pad1)*%
X102768600Y-95589400D03*
%TD*%
%TO.P,R70,2,2*%
%TO.N,/M29*%
X132258000Y-95519400D03*
%TO.P,R70,1,1*%
%TO.N,Net-(R70-Pad1)*%
X122098000Y-95519400D03*
%TD*%
%TO.P,R28,2,2*%
%TO.N,/M52*%
X88666200Y-92124600D03*
%TO.P,R28,1,1*%
%TO.N,Net-(R28-Pad1)*%
X78506200Y-92124600D03*
%TD*%
%TO.P,R29,2,2*%
%TO.N,/M40*%
X88916400Y-102846400D03*
%TO.P,R29,1,1*%
%TO.N,Net-(R29-Pad1)*%
X78756400Y-102846400D03*
%TD*%
%TO.P,R30,2,2*%
%TO.N,/M41*%
X86440000Y-117091000D03*
%TO.P,R30,1,1*%
%TO.N,Net-(R30-Pad1)*%
X76280000Y-117091000D03*
%TD*%
%TO.P,R31,2,2*%
%TO.N,/M42*%
X101629200Y-92230600D03*
%TO.P,R31,1,1*%
%TO.N,Net-(R31-Pad1)*%
X91469200Y-92230600D03*
%TD*%
%TO.P,R39,2,2*%
%TO.N,/MA2*%
X176643400Y-75108200D03*
%TO.P,R39,1,1*%
%TO.N,/MAG_A*%
X184263400Y-75108200D03*
%TD*%
%TO.P,R40,2,2*%
%TO.N,GND*%
X165686400Y-75074200D03*
%TO.P,R40,1,1*%
%TO.N,/MA2*%
X173306400Y-75074200D03*
%TD*%
D15*
%TO.P,LIGHT_12,2,2*%
%TO.N,/LIGHT2*%
X140165200Y-143149400D03*
%TO.P,LIGHT_12,1,1*%
%TO.N,/LIGHT1*%
X143665200Y-143149400D03*
%TD*%
%TO.P,LIGHT_34,2,2*%
%TO.N,/LIGHT4*%
X148648800Y-143149400D03*
%TO.P,LIGHT_34,1,1*%
%TO.N,/LIGHT3*%
X152148800Y-143149400D03*
%TD*%
D16*
%TO.P,MP3,4,4*%
%TO.N,GND*%
X223780199Y-78023799D03*
%TO.P,MP3,3,3*%
%TO.N,+5V*%
X223780199Y-80563799D03*
%TO.P,MP3,2,2*%
%TO.N,/MA7*%
X223780199Y-83103799D03*
%TO.P,MP3,1,1*%
%TO.N,/MA6*%
X223780199Y-85643799D03*
%TD*%
D11*
%TO.P,ACP220,7,7*%
%TO.N,unconnected-(ACP220-Pad7)*%
X213162999Y-126004399D03*
%TO.P,ACP220,6,6*%
%TO.N,unconnected-(ACP220-Pad6)*%
X210622999Y-126004399D03*
%TO.P,ACP220,5,5*%
%TO.N,/MA11*%
X208082999Y-126004399D03*
%TO.P,ACP220,4,4*%
%TO.N,/MA10*%
X205542999Y-126004399D03*
%TO.P,ACP220,3,3*%
%TO.N,unconnected-(ACP220-Pad3)*%
X203002999Y-126004399D03*
%TO.P,ACP220,2,2*%
%TO.N,+5V*%
X200462999Y-126004399D03*
%TO.P,ACP220,1,1*%
%TO.N,GND*%
X197922999Y-126004399D03*
%TD*%
D16*
%TO.P,HC12,5,5*%
%TO.N,unconnected-(HC12-Pad5)*%
X187762999Y-80995599D03*
%TO.P,HC12,4,4*%
%TO.N,/MRX2*%
X187762999Y-83535599D03*
%TO.P,HC12,3,3*%
%TO.N,/MTX2*%
X187762999Y-86075599D03*
%TO.P,HC12,2,2*%
%TO.N,GND*%
X187762999Y-88615599D03*
%TO.P,HC12,1,1*%
%TO.N,Net-(D1-PadC)*%
X187762999Y-91155599D03*
%TD*%
D17*
%TO.P,U2,A9,A9*%
%TO.N,/MA9*%
X127514200Y-128747600D03*
%TO.P,U2,A10,A10*%
%TO.N,/MA10*%
X130054200Y-128747600D03*
%TO.P,U2,A11,A11*%
%TO.N,/MA11*%
X132594200Y-128747600D03*
%TO.P,U2,A12,A12*%
%TO.N,/MA12*%
X135134200Y-128747600D03*
%TO.P,U2,A13,A13*%
%TO.N,/MA13*%
X137674200Y-128747600D03*
%TO.P,U2,A14,A14*%
%TO.N,/MA14*%
X140214200Y-128747600D03*
%TO.P,U2,A15,A15*%
%TO.N,/MA15*%
X142754200Y-128747600D03*
%TO.P,U2,A8,A8*%
%TO.N,/MA8*%
X124974200Y-128747600D03*
%TO.P,U2,15,15(RX3)*%
%TO.N,/MRX3*%
X122434200Y-80487600D03*
%TO.P,U2,16,16(TX2)*%
%TO.N,/MTX2*%
X124974200Y-80487600D03*
%TO.P,U2,17,17(RX2)*%
%TO.N,/MRX2*%
X127514200Y-80487600D03*
%TO.P,U2,18,18(TX1)*%
%TO.N,/MTX1*%
X130054200Y-80487600D03*
%TO.P,U2,19,19(RX1)*%
%TO.N,/MRX1*%
X132594200Y-80487600D03*
%TO.P,U2,20,20(SDA)*%
%TO.N,/M20*%
X135134200Y-80487600D03*
%TO.P,U2,21,21(SCL)*%
%TO.N,/M21*%
X137674200Y-80487600D03*
%TO.P,U2,14,14(TX3)*%
%TO.N,/MTX3*%
X119894200Y-80487600D03*
%TO.P,U2,A1,A1(TX0)*%
%TO.N,/MA1*%
X104654200Y-128747600D03*
%TO.P,U2,A2,A2*%
%TO.N,/MA2*%
X107194200Y-128747600D03*
%TO.P,U2,A3,A3*%
%TO.N,/MA3*%
X109734200Y-128747600D03*
%TO.P,U2,A4,A4*%
%TO.N,/MA4*%
X112274200Y-128747600D03*
%TO.P,U2,A5,A5*%
%TO.N,/MA5*%
X114814200Y-128747600D03*
%TO.P,U2,A6,A6*%
%TO.N,/MA6*%
X117354200Y-128747600D03*
%TO.P,U2,A7,A7*%
%TO.N,/MA7*%
X119894200Y-128747600D03*
%TO.P,U2,A0,A0(RX0)*%
%TO.N,/MA0*%
X102114200Y-128747600D03*
%TO.P,U2,6,6*%
%TO.N,/M6*%
X99574200Y-80487600D03*
%TO.P,U2,5,5*%
%TO.N,/M5*%
X102114200Y-80487600D03*
%TO.P,U2,4,4*%
%TO.N,/M4*%
X104654200Y-80487600D03*
%TO.P,U2,3,3*%
%TO.N,/M3*%
X107194200Y-80487600D03*
%TO.P,U2,2,2*%
%TO.N,/M2*%
X109734200Y-80487600D03*
%TO.P,U2,1,1(TX0)*%
%TO.N,/MTX0*%
X112274200Y-80487600D03*
%TO.P,U2,0,0(RX0)*%
%TO.N,/MRX0*%
X114814200Y-80487600D03*
%TO.P,U2,7,7*%
%TO.N,/M7*%
X97034200Y-80487600D03*
%TO.P,U2,GND@4,GND@4*%
%TO.N,GND*%
X77730200Y-80487600D03*
%TO.P,U2,13,13*%
%TO.N,/M13*%
X80270200Y-80487600D03*
%TO.P,U2,12,12*%
%TO.N,/M12*%
X82810200Y-80487600D03*
%TO.P,U2,11,11*%
%TO.N,/M11*%
X85350200Y-80487600D03*
%TO.P,U2,10,10*%
%TO.N,/M10*%
X87890200Y-80487600D03*
%TO.P,U2,9,9*%
%TO.N,/M9*%
X90430200Y-80487600D03*
%TO.P,U2,8,8*%
%TO.N,/M8*%
X92970200Y-80487600D03*
%TO.P,U2,AREF,AREF*%
%TO.N,/MAR*%
X75190200Y-80487600D03*
%TO.P,U2,37,37*%
%TO.N,/M37*%
X147834200Y-100807600D03*
%TO.P,U2,36,36*%
%TO.N,/M36*%
X145294200Y-100807600D03*
%TO.P,U2,35,35*%
%TO.N,/M35*%
X147834200Y-98267600D03*
%TO.P,U2,34,34*%
%TO.N,/M34*%
X145294200Y-98267600D03*
%TO.P,U2,33,33*%
%TO.N,/M33*%
X147834200Y-95727600D03*
%TO.P,U2,32,32*%
%TO.N,/M32*%
X145294200Y-95727600D03*
%TO.P,U2,31,31*%
%TO.N,/M31*%
X147834200Y-93187600D03*
%TO.P,U2,30,30*%
%TO.N,/M30*%
X145294200Y-93187600D03*
%TO.P,U2,29,29*%
%TO.N,/M29*%
X147834200Y-90647600D03*
%TO.P,U2,28,28*%
%TO.N,/M28*%
X145294200Y-90647600D03*
%TO.P,U2,27,27*%
%TO.N,/M27*%
X147834200Y-88107600D03*
%TO.P,U2,26,26*%
%TO.N,/M26*%
X145294200Y-88107600D03*
%TO.P,U2,25,25*%
%TO.N,/M25*%
X147834200Y-85567600D03*
%TO.P,U2,24,24*%
%TO.N,/M24*%
X145294200Y-85567600D03*
%TO.P,U2,23,23*%
%TO.N,/M23*%
X147834200Y-83027600D03*
%TO.P,U2,22,22*%
%TO.N,/M22*%
X145294200Y-83027600D03*
%TO.P,U2,53,53*%
%TO.N,/M53*%
X147834200Y-121127600D03*
%TO.P,U2,52,52*%
%TO.N,/M52*%
X145294200Y-121127600D03*
%TO.P,U2,51,51*%
%TO.N,/M51*%
X147834200Y-118587600D03*
%TO.P,U2,50,50*%
%TO.N,/M50*%
X145294200Y-118587600D03*
%TO.P,U2,49,49*%
%TO.N,/M49*%
X147834200Y-116047600D03*
%TO.P,U2,48,48*%
%TO.N,/M48*%
X145294200Y-116047600D03*
%TO.P,U2,47,47*%
%TO.N,/M47*%
X147834200Y-113507600D03*
%TO.P,U2,46,46*%
%TO.N,/M46*%
X145294200Y-113507600D03*
%TO.P,U2,45,45*%
%TO.N,/M45*%
X147834200Y-110967600D03*
%TO.P,U2,44,44*%
%TO.N,/M44*%
X145294200Y-110967600D03*
%TO.P,U2,43,43*%
%TO.N,/M43*%
X147834200Y-108427600D03*
%TO.P,U2,42,42*%
%TO.N,/M42*%
X145294200Y-108427600D03*
%TO.P,U2,41,41*%
%TO.N,/M41*%
X147834200Y-105887600D03*
%TO.P,U2,40,40*%
%TO.N,/M40*%
X145294200Y-105887600D03*
%TO.P,U2,39,39*%
%TO.N,/M39*%
X147834200Y-103347600D03*
%TO.P,U2,38,38*%
%TO.N,/M38*%
X145294200Y-103347600D03*
%TO.P,U2,GND@2,GND@2*%
%TO.N,GND*%
X145294200Y-123667600D03*
%TO.P,U2,GND@3,GND@3*%
X147834200Y-123667600D03*
%TO.P,U2,5V@1,5V@1*%
%TO.N,+5V*%
X145294200Y-80487600D03*
%TO.P,U2,5V@2,5V@2*%
X147834200Y-80487600D03*
%TO.P,U2,RESET,RESET*%
%TO.N,/MRST*%
X84334200Y-128747600D03*
%TO.P,U2,3.3V,3.3V*%
%TO.N,/+3.3V*%
X86874200Y-128747600D03*
%TO.P,U2,5V@0,5V@0*%
%TO.N,+5V*%
X89414200Y-128747600D03*
%TO.P,U2,GND@0,GND@0*%
%TO.N,GND*%
X91954200Y-128747600D03*
%TO.P,U2,GND@1,GND@1*%
X94494200Y-128747600D03*
%TO.P,U2,VIN,VIN*%
%TO.N,/+VIN*%
X97034200Y-128747600D03*
%TD*%
D14*
%TO.P,T1,E,E*%
%TO.N,GND*%
X86208399Y-95945199D03*
%TO.P,T1,C,C*%
%TO.N,/LIGHT2*%
X81128399Y-95945199D03*
%TO.P,T1,B,B*%
%TO.N,Net-(R28-Pad1)*%
X83668399Y-95945199D03*
%TD*%
%TO.P,T2,E,E*%
%TO.N,GND*%
X86218999Y-107045199D03*
%TO.P,T2,C,C*%
%TO.N,/LAS_A1*%
X81138999Y-107045199D03*
%TO.P,T2,B,B*%
%TO.N,Net-(R29-Pad1)*%
X83678999Y-107045199D03*
%TD*%
%TO.P,T3,E,E*%
%TO.N,GND*%
X83428999Y-120904399D03*
%TO.P,T3,C,C*%
%TO.N,/LAS_A2*%
X78348999Y-120904399D03*
%TO.P,T3,B,B*%
%TO.N,Net-(R30-Pad1)*%
X80888999Y-120904399D03*
%TD*%
%TO.P,T4,E,E*%
%TO.N,GND*%
X99044599Y-96257199D03*
%TO.P,T4,C,C*%
%TO.N,/LAS_A3*%
X93964599Y-96257199D03*
%TO.P,T4,B,B*%
%TO.N,Net-(R31-Pad1)*%
X96504599Y-96257199D03*
%TD*%
D11*
%TO.P,CN1,1,1*%
%TO.N,/MAR*%
X75063199Y-75305999D03*
%TO.P,CN1,2,2*%
%TO.N,GND*%
X77603199Y-75305999D03*
%TO.P,CN1,3,3*%
%TO.N,/M13*%
X80143199Y-75305999D03*
%TO.P,CN1,4,4*%
%TO.N,/M12*%
X82683199Y-75305999D03*
%TO.P,CN1,5,5*%
%TO.N,/M11*%
X85223199Y-75305999D03*
%TO.P,CN1,6,6*%
%TO.N,/M10*%
X87763199Y-75305999D03*
%TO.P,CN1,7,7*%
%TO.N,/M9*%
X90303199Y-75305999D03*
%TO.P,CN1,8,8*%
%TO.N,/M8*%
X92843199Y-75305999D03*
%TD*%
%TO.P,CN2,1,1*%
%TO.N,/M7*%
X96957999Y-75382199D03*
%TO.P,CN2,2,2*%
%TO.N,/M6*%
X99497999Y-75382199D03*
%TO.P,CN2,3,3*%
%TO.N,/M5*%
X102037999Y-75382199D03*
%TO.P,CN2,4,4*%
%TO.N,/M4*%
X104577999Y-75382199D03*
%TO.P,CN2,5,5*%
%TO.N,/M3*%
X107117999Y-75382199D03*
%TO.P,CN2,6,6*%
%TO.N,/M2*%
X109657999Y-75382199D03*
%TO.P,CN2,7,7*%
%TO.N,/MTX0*%
X112197999Y-75382199D03*
%TO.P,CN2,8,8*%
%TO.N,/MRX0*%
X114737999Y-75382199D03*
%TD*%
%TO.P,CN3,1,1*%
%TO.N,/MTX3*%
X119614799Y-75534599D03*
%TO.P,CN3,2,2*%
%TO.N,/MRX3*%
X122154799Y-75534599D03*
%TO.P,CN3,3,3*%
%TO.N,/MTX2*%
X124694799Y-75534599D03*
%TO.P,CN3,4,4*%
%TO.N,/MRX2*%
X127234799Y-75534599D03*
%TO.P,CN3,5,5*%
%TO.N,/MTX1*%
X129774799Y-75534599D03*
%TO.P,CN3,6,6*%
%TO.N,/MRX1*%
X132314799Y-75534599D03*
%TO.P,CN3,7,7*%
%TO.N,/M20*%
X134854799Y-75534599D03*
%TO.P,CN3,8,8*%
%TO.N,/M21*%
X137394799Y-75534599D03*
%TD*%
%TO.P,CN5,1,1*%
%TO.N,/MA8*%
X124796399Y-134995999D03*
%TO.P,CN5,2,2*%
%TO.N,/MA9*%
X127336399Y-134995999D03*
%TO.P,CN5,3,3*%
%TO.N,/MA10*%
X129876399Y-134995999D03*
%TO.P,CN5,4,4*%
%TO.N,/MA11*%
X132416399Y-134995999D03*
%TO.P,CN5,5,5*%
%TO.N,/MA12*%
X134956399Y-134995999D03*
%TO.P,CN5,6,6*%
%TO.N,/MA13*%
X137496399Y-134995999D03*
%TO.P,CN5,7,7*%
%TO.N,/MA14*%
X140036399Y-134995999D03*
%TO.P,CN5,8,8*%
%TO.N,/MA15*%
X142576399Y-134995999D03*
%TD*%
%TO.P,CN6,1,1*%
%TO.N,/MA0*%
X101783999Y-134818199D03*
%TO.P,CN6,2,2*%
%TO.N,/MA1*%
X104323999Y-134818199D03*
%TO.P,CN6,3,3*%
%TO.N,/MA2*%
X106863999Y-134818199D03*
%TO.P,CN6,4,4*%
%TO.N,/MA3*%
X109403999Y-134818199D03*
%TO.P,CN6,5,5*%
%TO.N,/MA4*%
X111943999Y-134818199D03*
%TO.P,CN6,6,6*%
%TO.N,/MA5*%
X114483999Y-134818199D03*
%TO.P,CN6,7,7*%
%TO.N,/MA6*%
X117023999Y-134818199D03*
%TO.P,CN6,8,8*%
%TO.N,/MA7*%
X119563999Y-134818199D03*
%TD*%
D14*
%TO.P,T5,E,E*%
%TO.N,GND*%
X101047399Y-106319399D03*
%TO.P,T5,C,C*%
%TO.N,/LAS_B1*%
X95967399Y-106319399D03*
%TO.P,T5,B,B*%
%TO.N,Net-(R1-Pad1)*%
X98507399Y-106319399D03*
%TD*%
%TO.P,T6,E,E*%
%TO.N,GND*%
X73335999Y-92933599D03*
%TO.P,T6,C,C*%
%TO.N,/LAS_B2*%
X68255999Y-92933599D03*
%TO.P,T6,B,B*%
%TO.N,Net-(R2-Pad1)*%
X70795999Y-92933599D03*
%TD*%
%TO.P,T7,E,E*%
%TO.N,GND*%
X73031199Y-103423799D03*
%TO.P,T7,C,C*%
%TO.N,/LAS_B3*%
X67951199Y-103423799D03*
%TO.P,T7,B,B*%
%TO.N,Net-(R3-Pad1)*%
X70491199Y-103423799D03*
%TD*%
D12*
%TO.P,R1,1,1*%
%TO.N,Net-(R1-Pad1)*%
X93732200Y-102661800D03*
%TO.P,R1,2,2*%
%TO.N,/M45*%
X103892200Y-102661800D03*
%TD*%
%TO.P,R2,1,1*%
%TO.N,Net-(R2-Pad1)*%
X65766800Y-88920400D03*
%TO.P,R2,2,2*%
%TO.N,/M46*%
X75926800Y-88920400D03*
%TD*%
%TO.P,R3,1,1*%
%TO.N,Net-(R3-Pad1)*%
X65360400Y-99385200D03*
%TO.P,R3,2,2*%
%TO.N,/M47*%
X75520400Y-99385200D03*
%TD*%
D15*
%TO.P,LAS_OUT_A1,1,1*%
%TO.N,/LAS_A1*%
X78410000Y-143251000D03*
%TO.P,LAS_OUT_A1,2,2*%
%TO.N,/LAS_A2*%
X74910000Y-143251000D03*
%TO.P,LAS_OUT_A1,3,3*%
%TO.N,/LAS_A3*%
X71410000Y-143251000D03*
%TD*%
%TO.P,LAS_IN_A1,1,1*%
%TO.N,/M43*%
X87099400Y-143174800D03*
%TO.P,LAS_IN_A1,2,2*%
%TO.N,/M44*%
X83599400Y-143174800D03*
%TD*%
%TO.P,LAS_OUT_B1,1,1*%
%TO.N,/LAS_B1*%
X99288800Y-143124000D03*
%TO.P,LAS_OUT_B1,2,2*%
%TO.N,/LAS_B2*%
X95788800Y-143124000D03*
%TO.P,LAS_OUT_B1,3,3*%
%TO.N,/LAS_B3*%
X92288800Y-143124000D03*
%TD*%
%TO.P,LAS_IN_B1,1,1*%
%TO.N,/M48*%
X107546400Y-143149400D03*
%TO.P,LAS_IN_B1,2,2*%
%TO.N,/M49*%
X104046400Y-143149400D03*
%TD*%
%TO.P,MAG_A_IN1,1,1*%
%TO.N,/M30*%
X174761600Y-67000200D03*
%TO.P,MAG_A_IN1,2,2*%
%TO.N,/MAG_A*%
X178261600Y-67000200D03*
%TD*%
%TO.P,MAG_A_SEL1,1,1*%
%TO.N,/M33*%
X183346800Y-66949400D03*
%TO.P,MAG_A_SEL1,2,2*%
%TO.N,/M32*%
X186846800Y-66949400D03*
%TD*%
%TO.P,MAG_B_IN1,1,1*%
%TO.N,/M31*%
X192109800Y-66771600D03*
%TO.P,MAG_B_IN1,2,2*%
%TO.N,/MAG_B*%
X195609800Y-66771600D03*
%TD*%
%TO.P,MAG_B_SEL1,1,1*%
%TO.N,/M35*%
X200771200Y-66847800D03*
%TO.P,MAG_B_SEL1,2,2*%
%TO.N,/M34*%
X204271200Y-66847800D03*
%TD*%
%TO.P,ADD_BAR_A1,1,1*%
%TO.N,/M25*%
X172621200Y-142971600D03*
%TO.P,ADD_BAR_A1,2,2*%
%TO.N,/M26*%
X169121200Y-142971600D03*
%TD*%
%TO.P,ADD_BAR_B1,1,1*%
%TO.N,/M27*%
X181409600Y-142870000D03*
%TO.P,ADD_BAR_B1,2,2*%
%TO.N,/M28*%
X177909600Y-142870000D03*
%TD*%
%TO.P,BUTTON1,1,1*%
%TO.N,/MA14*%
X162029400Y-143098600D03*
%TO.P,BUTTON1,2,2*%
%TO.N,/MA15*%
X158529400Y-143098600D03*
%TD*%
%TO.P,RFID1,1,1*%
%TO.N,/M2*%
X115681200Y-66924000D03*
%TO.P,RFID1,2,2*%
%TO.N,/M3*%
X119181200Y-66924000D03*
%TD*%
%TO.P,RFID2,1,1*%
%TO.N,/MRX1*%
X124317200Y-66974800D03*
%TO.P,RFID2,2,2*%
%TO.N,/MTX1*%
X127817200Y-66974800D03*
%TD*%
%TO.P,BUMPER1,1,1*%
%TO.N,/MA12*%
X164550800Y-67127200D03*
%TO.P,BUMPER1,2,2*%
%TO.N,/MA13*%
X168050800Y-67127200D03*
%TD*%
%TO.P,MD_A1,1,1*%
%TO.N,/M8*%
X143443400Y-66949400D03*
%TO.P,MD_A1,2,2*%
%TO.N,/M9*%
X146943400Y-66949400D03*
%TD*%
%TO.P,MD_B1,1,1*%
%TO.N,/M6*%
X134858200Y-66949400D03*
%TO.P,MD_B1,2,2*%
%TO.N,/M7*%
X138358200Y-66949400D03*
%TD*%
D14*
%TO.P,T8,E,E*%
%TO.N,GND*%
X72980399Y-114015599D03*
%TO.P,T8,C,C*%
%TO.N,/LIGHT3*%
X67900399Y-114015599D03*
%TO.P,T8,B,B*%
%TO.N,Net-(R6-Pad1)*%
X70440399Y-114015599D03*
%TD*%
%TO.P,T9,E,E*%
%TO.N,GND*%
X72777199Y-124302599D03*
%TO.P,T9,C,C*%
%TO.N,/LIGHT4*%
X67697199Y-124302599D03*
%TO.P,T9,B,B*%
%TO.N,Net-(R7-Pad1)*%
X70237199Y-124302599D03*
%TD*%
D12*
%TO.P,R7,1,1*%
%TO.N,Net-(R7-Pad1)*%
X65182600Y-120441800D03*
%TO.P,R7,2,2*%
%TO.N,/M53*%
X75342600Y-120441800D03*
%TD*%
D15*
%TO.P,TONE1,1,1*%
%TO.N,/MEL1*%
X101231200Y-66974800D03*
%TO.P,TONE1,2,2*%
%TO.N,/MEL2*%
X104731200Y-66974800D03*
%TO.P,TONE1,3,3*%
%TO.N,/MEL3*%
X108231200Y-66974800D03*
%TD*%
%TO.P,HOOK_A1,1,1*%
%TO.N,/MA4*%
X73161600Y-66822400D03*
%TO.P,HOOK_A1,2,2*%
%TO.N,/MA5*%
X76661600Y-66822400D03*
%TD*%
%TO.P,HOOK_B1,1,1*%
%TO.N,/M4*%
X81899200Y-66720800D03*
%TO.P,HOOK_B1,2,2*%
%TO.N,/M5*%
X85399200Y-66720800D03*
%TD*%
%TO.P,HOOK_C1,1,1*%
%TO.N,/M36*%
X90687600Y-66822400D03*
%TO.P,HOOK_C1,2,2*%
%TO.N,/M37*%
X94187600Y-66822400D03*
%TD*%
%TO.P,PD_INPUT1,1,1*%
%TO.N,/M51*%
X154187600Y-67076400D03*
%TO.P,PD_INPUT1,2,2*%
%TO.N,/M38*%
X157687600Y-67076400D03*
%TD*%
%TO.P,AIO_A1,1,1*%
%TO.N,/MA0*%
X120980400Y-143174800D03*
%TO.P,AIO_A1,2,2*%
%TO.N,/MA1*%
X117480400Y-143174800D03*
%TO.P,AIO_A1,3,3*%
%TO.N,/MA8*%
X113980400Y-143174800D03*
%TD*%
%TO.P,AIO_B1,1,1*%
%TO.N,/MA9*%
X133096200Y-143098600D03*
%TO.P,AIO_B1,2,2*%
%TO.N,/MA10*%
X129596200Y-143098600D03*
%TO.P,AIO_B1,3,3*%
%TO.N,/MA11*%
X126096200Y-143098600D03*
%TD*%
D18*
%TO.P,X1,1,1*%
%TO.N,+5V*%
X229063399Y-124632799D03*
%TO.P,X1,2,1*%
%TO.N,GND*%
X229063399Y-132252799D03*
%TD*%
D16*
%TO.P,BTOOTH1,1,1*%
%TO.N,unconnected-(BTOOTH1-Pad1)*%
X224008799Y-113151999D03*
%TO.P,BTOOTH1,2,2*%
%TO.N,+5V*%
X224008799Y-110611999D03*
%TO.P,BTOOTH1,3,3*%
%TO.N,GND*%
X224008799Y-108071999D03*
%TO.P,BTOOTH1,4,4*%
%TO.N,/MRX3*%
X224008799Y-105531999D03*
%TO.P,BTOOTH1,5,5*%
%TO.N,/MTX3*%
X224008799Y-102991999D03*
%TO.P,BTOOTH1,6,6*%
%TO.N,unconnected-(BTOOTH1-Pad6)*%
X224008799Y-100451999D03*
%TD*%
D19*
%TO.P,D1,A,A*%
%TO.N,+5V*%
X173539000Y-90088800D03*
%TO.P,D1,C,C*%
%TO.N,Net-(D1-PadC)*%
X183699000Y-90088800D03*
%TD*%
D20*
%TO.N,+5V*%
X193800000Y-126619800D03*
%TO.N,/M31*%
X174800000Y-81600000D03*
%TO.N,/M33*%
X173800000Y-80200000D03*
X176427191Y-77513782D03*
%TO.N,/M32*%
X175980200Y-76619800D03*
X173526500Y-79200000D03*
%TO.N,/M47*%
X168198139Y-83546300D03*
%TO.N,/M32*%
X177600000Y-76619800D03*
%TO.N,/M51*%
X155000000Y-116200000D03*
%TO.N,/M30*%
X151600000Y-77046300D03*
X155600000Y-69800000D03*
X151600000Y-77046300D03*
X160262014Y-70737986D03*
%TO.N,/M33*%
X178289900Y-77419800D03*
%TO.N,/M31*%
X182709586Y-79290414D03*
X184566400Y-77419800D03*
X179742900Y-81600000D03*
X178289900Y-81600000D03*
%TO.N,/MEL1*%
X102926522Y-105782250D03*
%TO.N,/MA2*%
X143425200Y-103418674D03*
X136492900Y-105200000D03*
X135039900Y-105165873D03*
X128600000Y-110200000D03*
%TO.N,/M22*%
X113830200Y-101569800D03*
%TO.N,/MA2*%
X115200000Y-120000000D03*
X118400000Y-117000000D03*
X119800000Y-115400000D03*
X122600000Y-112800000D03*
X168462014Y-72137986D03*
X156589900Y-71800000D03*
X164400000Y-73400000D03*
X147509586Y-78090414D03*
%TO.N,/M29*%
X149600000Y-77546300D03*
X141066400Y-75147228D03*
%TO.N,/MA2*%
X106462473Y-124643300D03*
%TO.N,/MA3*%
X187800000Y-109000000D03*
X187800000Y-120600000D03*
X187400000Y-129000000D03*
X178184586Y-135015414D03*
X165800000Y-135000000D03*
X173200000Y-134400000D03*
X153431814Y-128831814D03*
X152385385Y-129916212D03*
X137400000Y-126643300D03*
X130520327Y-120393300D03*
X126504386Y-120393300D03*
X112004386Y-124604386D03*
X109062473Y-124643300D03*
X134662473Y-126643300D03*
X110670327Y-126796300D03*
%TO.N,/M39*%
X163600000Y-105800000D03*
X168326500Y-109000000D03*
X168800000Y-116000000D03*
X148704386Y-131393300D03*
%TO.N,/M42*%
X161192900Y-94681814D03*
%TO.N,/M43*%
X155326500Y-110057327D03*
%TO.N,/M33*%
X161692900Y-96400000D03*
%TO.N,/M38*%
X162462473Y-130996300D03*
%TO.N,/M26*%
X165200000Y-99000000D03*
X167600000Y-123600000D03*
X167600000Y-99400000D03*
%TO.N,/M44*%
X117600000Y-111200000D03*
X120000000Y-109000000D03*
%TO.N,/MEL2*%
X95000000Y-101800000D03*
X95000000Y-98800000D03*
%TO.N,/MEL1*%
X100200000Y-98800000D03*
%TO.N,/M52*%
X154800000Y-122000000D03*
%TO.N,/M36*%
X153492900Y-98600000D03*
X154200000Y-100400000D03*
X149600000Y-98743300D03*
%TO.N,/M48*%
X128000000Y-116200000D03*
X114600000Y-116200000D03*
%TO.N,/M52*%
X152839900Y-121000000D03*
%TO.N,/M39*%
X89000000Y-119800000D03*
X120539900Y-126802690D03*
%TO.N,/M28*%
X168316400Y-94543300D03*
X151200000Y-91600000D03*
%TO.N,/LAS_B3*%
X79400000Y-141400000D03*
X77000000Y-141400000D03*
X74000000Y-129200000D03*
X74200000Y-126600000D03*
X72800000Y-121000000D03*
X69000000Y-111000000D03*
%TO.N,/LAS_A3*%
X66866400Y-118869800D03*
X66400000Y-101800000D03*
X74400000Y-94600000D03*
%TO.N,/M44*%
X122862014Y-108337986D03*
X134800000Y-99600000D03*
D21*
%TO.N,/MA4*%
X71716400Y-97219800D03*
X95316400Y-120769800D03*
%TO.N,/MA5*%
X72516400Y-95419800D03*
X96816400Y-119969800D03*
%TO.N,/MA6*%
X185166400Y-120969800D03*
X185166400Y-125819800D03*
X178966400Y-128769800D03*
X135016400Y-138269800D03*
X129266400Y-139169800D03*
%TO.N,/MA7*%
X176516400Y-130569800D03*
X149866400Y-140719800D03*
X130716400Y-138369800D03*
%TO.N,/MA10*%
X164066400Y-146419800D03*
%TO.N,/MA11*%
X167416400Y-143719800D03*
X127616400Y-140869800D03*
X129766400Y-140169800D03*
%TO.N,/MA12*%
X173266400Y-73469800D03*
X179016400Y-91819800D03*
X179016400Y-112969800D03*
X170666400Y-124269800D03*
X148216400Y-137919800D03*
%TO.N,/MA13*%
X175166400Y-74269800D03*
X168966400Y-122569800D03*
X144766400Y-138169800D03*
X140666400Y-138169800D03*
%TO.N,/M3*%
X112516400Y-70119800D03*
%TO.N,/M6*%
X131816400Y-67819800D03*
X127416400Y-70369800D03*
X118966400Y-71369800D03*
X115816400Y-71369800D03*
%TO.N,/M7*%
X126316400Y-63969800D03*
X106466400Y-66719800D03*
%TO.N,/M8*%
X135966400Y-78369800D03*
X123916400Y-78369800D03*
X117416400Y-66619800D03*
%TO.N,/M9*%
X125566400Y-64769800D03*
X94966400Y-69969800D03*
%TO.N,/MTX3*%
X177866400Y-128769800D03*
X157466400Y-132919800D03*
X142666400Y-123969800D03*
X140466400Y-121769800D03*
X135766400Y-98269800D03*
X134966400Y-93969800D03*
%TO.N,/MRX3*%
X190616400Y-96319800D03*
X188316400Y-94019800D03*
X170766400Y-84819800D03*
X167666400Y-80969800D03*
X140266400Y-76319800D03*
X138216400Y-78369800D03*
%TO.N,/MTX2*%
X172966400Y-82619800D03*
X169616400Y-74319800D03*
X151966400Y-65619800D03*
X136566400Y-66269800D03*
X129516400Y-65519800D03*
X124866400Y-68769800D03*
X123766400Y-69869800D03*
%TO.N,/MRX2*%
X180966400Y-75319800D03*
X132866400Y-68269800D03*
%TO.N,/MRX1*%
X133866400Y-70369800D03*
%TO.N,/M20*%
X141666400Y-66669800D03*
X176216400Y-69319800D03*
%TO.N,/M21*%
X171766400Y-68819800D03*
X178216400Y-75269800D03*
%TO.N,/M22*%
X129266400Y-101219800D03*
X153266400Y-79719800D03*
%TO.N,/M23*%
X112416400Y-100219800D03*
X123566400Y-98669800D03*
X143416400Y-82519800D03*
%TO.N,/M24*%
X142616400Y-86419800D03*
%TO.N,/M25*%
X186266400Y-130069800D03*
X186266400Y-125519800D03*
X173166400Y-87869800D03*
X164466400Y-81019800D03*
%TO.N,/M26*%
X153566400Y-102569800D03*
X150966400Y-100269800D03*
%TO.N,/M27*%
X173966400Y-119319800D03*
X169416400Y-94469800D03*
X163366400Y-90569800D03*
%TO.N,/M28*%
X164066400Y-94469800D03*
X172266400Y-127969800D03*
%TO.N,/M30*%
X163116400Y-85469800D03*
X166866400Y-81719800D03*
%TO.N,/M31*%
X184566400Y-77419800D03*
%TO.N,/M32*%
X164916400Y-87269800D03*
X186066400Y-74769800D03*
%TO.N,/M33*%
X183466400Y-77419800D03*
X162866400Y-92169800D03*
X157816400Y-97419800D03*
%TO.N,/M34*%
X163666400Y-98219800D03*
X140566400Y-94469800D03*
X140216400Y-92369800D03*
X131616400Y-92369800D03*
X117916400Y-92119800D03*
X115666400Y-89869800D03*
X100966400Y-88969800D03*
X92716400Y-70169800D03*
X131416400Y-64619800D03*
X134766400Y-64469800D03*
%TO.N,/M35*%
X200816400Y-80419800D03*
X177116400Y-93369800D03*
X175516400Y-93369800D03*
X166066400Y-96069800D03*
%TO.N,/M36*%
X133566400Y-95419800D03*
X117116400Y-92919800D03*
X115666400Y-91469800D03*
X94316400Y-75569800D03*
X94616400Y-71419800D03*
%TO.N,/M37*%
X91816400Y-72169800D03*
X116416400Y-86969800D03*
X118316400Y-86969800D03*
X131266400Y-91269800D03*
X141366400Y-92369800D03*
%TO.N,/M38*%
X163766400Y-89519800D03*
X162066400Y-79719800D03*
X133716400Y-110969800D03*
X121266400Y-133819800D03*
X133716400Y-139169800D03*
X145466400Y-139669800D03*
X165966400Y-120669800D03*
X160166400Y-104519800D03*
%TO.N,/M40*%
X124366400Y-111969800D03*
X132016400Y-113669800D03*
X137366400Y-111869800D03*
X160116400Y-109969800D03*
X122066400Y-128769800D03*
%TO.N,/M41*%
X149566400Y-125619800D03*
X150016400Y-116119800D03*
X161266400Y-120819800D03*
%TO.N,/M42*%
X127616400Y-104219800D03*
X139016400Y-110169800D03*
X140566400Y-111719800D03*
X152566400Y-105069800D03*
X164766400Y-91369800D03*
X167416400Y-87519800D03*
X158116400Y-72719800D03*
X120466400Y-71169800D03*
X120866400Y-88419800D03*
X122166400Y-98919800D03*
%TO.N,/M43*%
X104166400Y-140869800D03*
X112616400Y-140869800D03*
X122866400Y-127369800D03*
X150816400Y-125619800D03*
X150516400Y-119369800D03*
%TO.N,/M44*%
X150916400Y-104319800D03*
X161266400Y-80519800D03*
X158116400Y-75969800D03*
X142666400Y-104869800D03*
X99916400Y-123119800D03*
%TO.N,/M45*%
X102366400Y-107369800D03*
X96916400Y-123919800D03*
X99416400Y-128969800D03*
X162266400Y-113419800D03*
%TO.N,/M46*%
X127266400Y-106719800D03*
X130716400Y-110169800D03*
X139666400Y-113019800D03*
X161866400Y-114469800D03*
X164866400Y-120669800D03*
X162466400Y-123069800D03*
X124016400Y-133019800D03*
%TO.N,/M47*%
X80116400Y-93469800D03*
X168766400Y-86219800D03*
X164466400Y-95869800D03*
%TO.N,/M48*%
X163266400Y-117619800D03*
X140666400Y-140519800D03*
X130866400Y-140519800D03*
X105016400Y-124569800D03*
%TO.N,/M49*%
X127866400Y-142769800D03*
X132266400Y-141469800D03*
X138616400Y-141469800D03*
X163266400Y-118719800D03*
%TO.N,/M50*%
X174716400Y-109019800D03*
X175016400Y-89619800D03*
X169316400Y-80269800D03*
X117216400Y-74319800D03*
X114066400Y-94869800D03*
X112816400Y-99169800D03*
X129416400Y-117519800D03*
%TO.N,/M51*%
X142666400Y-121019800D03*
X138566400Y-119119800D03*
X135216400Y-115769800D03*
X126016400Y-106569800D03*
X114866400Y-99019800D03*
X114866400Y-84269800D03*
X114866400Y-82069800D03*
X142316400Y-63969800D03*
X149816400Y-65469800D03*
%TO.N,/M52*%
X125216400Y-104869800D03*
X142666400Y-117269800D03*
%TO.N,/M53*%
X86866400Y-122569800D03*
X98066400Y-126069800D03*
X100216400Y-130269800D03*
X156316400Y-127319800D03*
X151016400Y-121169800D03*
X153166400Y-116819800D03*
%TO.N,/MEL1*%
X100166400Y-90569800D03*
X100166400Y-86519800D03*
%TO.N,/MEL2*%
X96466400Y-108969800D03*
X95366400Y-92819800D03*
X95366400Y-82369800D03*
X100566400Y-68719800D03*
%TO.N,/MEL3*%
X114066400Y-86169800D03*
X113916400Y-72169800D03*
%TO.N,/LIGHT3*%
X106116400Y-146019800D03*
%TO.N,/LIGHT4*%
X94866400Y-145319800D03*
X123566400Y-144669800D03*
%TO.N,/LAS_B1*%
X82916400Y-127219800D03*
%TO.N,/LAS_B2*%
X78266400Y-131869800D03*
X89116400Y-141669800D03*
%TO.N,/LIGHT1*%
X122766400Y-96769800D03*
X120066400Y-94919800D03*
X115916400Y-83219800D03*
X115916400Y-76969800D03*
X119466400Y-68669800D03*
X127966400Y-68719800D03*
X161216400Y-72719800D03*
X170366400Y-86469800D03*
%TO.N,/LIGHT2*%
X77116400Y-110269800D03*
X130966400Y-121919800D03*
X151316400Y-138169800D03*
%TD*%
D22*
%TO.N,+5V*%
X225840800Y-127855400D02*
X195035600Y-127855400D01*
X195035600Y-127855400D02*
X193800000Y-126619800D01*
X229063400Y-124632800D02*
X225840800Y-127855400D01*
%TO.N,/M31*%
X174800000Y-81600000D02*
X178289900Y-81600000D01*
%TO.N,/M33*%
X176427191Y-77572809D02*
X176427191Y-77513782D01*
X173800000Y-80200000D02*
X176427191Y-77572809D01*
%TO.N,/M32*%
X173526500Y-79200000D02*
X173526500Y-79073500D01*
X173526500Y-79073500D02*
X175980200Y-76619800D01*
%TO.N,/MA13*%
X175166400Y-74610595D02*
X175166400Y-74269800D01*
X172800000Y-76976995D02*
X175166400Y-74610595D01*
X172800000Y-80703400D02*
X172800000Y-76976995D01*
X176316400Y-84219800D02*
X172800000Y-80703400D01*
%TO.N,/M47*%
X168766400Y-84114561D02*
X168198139Y-83546300D01*
X168766400Y-86219800D02*
X168766400Y-84114561D01*
%TO.N,/M32*%
X175980200Y-76619800D02*
X177600000Y-76619800D01*
%TO.N,/M51*%
X147309474Y-114780800D02*
X153580800Y-114780800D01*
X153580800Y-114780800D02*
X155000000Y-116200000D01*
X146567400Y-115522874D02*
X147309474Y-114780800D01*
X146567400Y-117320800D02*
X146567400Y-115522874D01*
X147834200Y-118587600D02*
X146567400Y-117320800D01*
%TO.N,/M30*%
X155600000Y-69800000D02*
X155600000Y-73046300D01*
X155600000Y-73046300D02*
X151600000Y-77046300D01*
%TO.N,/MA2*%
X154326700Y-78273300D02*
X156589900Y-76010100D01*
X147692472Y-78273300D02*
X154326700Y-78273300D01*
X147509586Y-78090414D02*
X147692472Y-78273300D01*
X156589900Y-76010100D02*
X156589900Y-71800000D01*
%TO.N,/M30*%
X160517838Y-70737986D02*
X160262014Y-70737986D01*
X164778773Y-74127000D02*
X163906852Y-74127000D01*
X164901573Y-74004200D02*
X164778773Y-74127000D01*
X167757600Y-74004200D02*
X164901573Y-74004200D01*
X174761600Y-67000200D02*
X167757600Y-74004200D01*
X163906852Y-74127000D02*
X160517838Y-70737986D01*
%TO.N,/LIGHT1*%
X166066400Y-81519800D02*
X161216400Y-76669800D01*
X166066400Y-81992906D02*
X166066400Y-81519800D01*
X161216400Y-76669800D02*
X161216400Y-72719800D01*
X169966400Y-84019800D02*
X168766400Y-82819800D01*
X169966400Y-86069800D02*
X169966400Y-84019800D01*
X170366400Y-86469800D02*
X169966400Y-86069800D01*
X168766400Y-82819800D02*
X166893294Y-82819800D01*
X166893294Y-82819800D02*
X166066400Y-81992906D01*
%TO.N,/M33*%
X176380200Y-77419800D02*
X178289900Y-77419800D01*
%TO.N,/M31*%
X179742900Y-81600000D02*
X180400000Y-81600000D01*
X180400000Y-81600000D02*
X182709586Y-79290414D01*
X178226914Y-81662986D02*
X178289900Y-81600000D01*
%TO.N,/MEL1*%
X100200000Y-103055728D02*
X100200000Y-98800000D01*
X102926522Y-105782250D02*
X100200000Y-103055728D01*
%TO.N,/MA2*%
X138274226Y-103418674D02*
X143425200Y-103418674D01*
X136492900Y-105200000D02*
X138274226Y-103418674D01*
X128600000Y-110200000D02*
X133634127Y-105165873D01*
X133634127Y-105165873D02*
X135039900Y-105165873D01*
%TO.N,/M22*%
X113830200Y-101569800D02*
X107198200Y-108201800D01*
X107198200Y-108201800D02*
X105860800Y-108201800D01*
%TO.N,/M52*%
X93566400Y-97969800D02*
X88666400Y-93069800D01*
X88666400Y-93069800D02*
X88666400Y-92169800D01*
X88666400Y-92169800D02*
X88666200Y-92124600D01*
X121946600Y-107200000D02*
X112716400Y-97969800D01*
X112716400Y-97969800D02*
X93566400Y-97969800D01*
X122886200Y-107200000D02*
X121946600Y-107200000D01*
X125216400Y-104869800D02*
X122886200Y-107200000D01*
%TO.N,/MA2*%
X122400000Y-112800000D02*
X122600000Y-112800000D01*
X119800000Y-115400000D02*
X122400000Y-112800000D01*
X118200000Y-117000000D02*
X118400000Y-117000000D01*
X115200000Y-120000000D02*
X118200000Y-117000000D01*
X167200000Y-73400000D02*
X168462014Y-72137986D01*
X164400000Y-73400000D02*
X167200000Y-73400000D01*
%TO.N,/M29*%
X149542900Y-77546300D02*
X149600000Y-77546300D01*
X146796600Y-74800000D02*
X149542900Y-77546300D01*
X141066400Y-75147228D02*
X141413628Y-74800000D01*
X141413628Y-74800000D02*
X146796600Y-74800000D01*
%TO.N,/MA2*%
X107194200Y-125375027D02*
X106462473Y-124643300D01*
X107194200Y-128747600D02*
X107194200Y-125375027D01*
%TO.N,/MA3*%
X201575200Y-80105494D02*
X196801106Y-75331400D01*
X196801106Y-75331400D02*
X196754600Y-75331400D01*
X201575200Y-95224800D02*
X201575200Y-80105494D01*
X187800000Y-128600000D02*
X187800000Y-120600000D01*
X187400000Y-129000000D02*
X187800000Y-128600000D01*
X187800000Y-109000000D02*
X201575200Y-95224800D01*
X177569172Y-134400000D02*
X178184586Y-135015414D01*
X164800000Y-135000000D02*
X165800000Y-135000000D01*
X158631814Y-128831814D02*
X164800000Y-135000000D01*
X153431814Y-128831814D02*
X158631814Y-128831814D01*
X173200000Y-134400000D02*
X177569172Y-134400000D01*
%TO.N,/M39*%
X166725200Y-118074800D02*
X168800000Y-116000000D01*
X163000000Y-139200000D02*
X166725200Y-135474800D01*
X166725200Y-135474800D02*
X166725200Y-118074800D01*
X153600000Y-139200000D02*
X163000000Y-139200000D01*
X148704386Y-134304386D02*
X153600000Y-139200000D01*
X148704386Y-131393300D02*
X148704386Y-134304386D01*
%TO.N,/M38*%
X165966400Y-127433600D02*
X165966400Y-120669800D01*
X162403700Y-130996300D02*
X165966400Y-127433600D01*
X162462473Y-130996300D02*
X162403700Y-130996300D01*
%TO.N,/MA3*%
X143131952Y-126643300D02*
X145857200Y-129368548D01*
X137400000Y-126643300D02*
X143131952Y-126643300D01*
X147375118Y-131092166D02*
X147977386Y-131092166D01*
X134616794Y-126643300D02*
X134662473Y-126643300D01*
X145857200Y-129368548D02*
X145857200Y-129574248D01*
X130207600Y-122234106D02*
X134616794Y-126643300D01*
X130207600Y-120706027D02*
X130207600Y-122234106D01*
X130520327Y-120393300D02*
X130207600Y-120706027D01*
X151635297Y-130666300D02*
X152385385Y-129916212D01*
X116215472Y-120393300D02*
X126504386Y-120393300D01*
X147977386Y-131092166D02*
X148403252Y-130666300D01*
X145857200Y-129574248D02*
X147375118Y-131092166D01*
X112004386Y-124604386D02*
X116215472Y-120393300D01*
X109062473Y-125188446D02*
X109062473Y-124643300D01*
X110670327Y-126796300D02*
X109062473Y-125188446D01*
X148403252Y-130666300D02*
X151635297Y-130666300D01*
%TO.N,/M39*%
X166800000Y-109000000D02*
X163600000Y-105800000D01*
X168326500Y-109000000D02*
X166800000Y-109000000D01*
%TO.N,/M42*%
X162020400Y-93854314D02*
X161192900Y-94681814D01*
X162020400Y-91457852D02*
X162020400Y-93854314D01*
X162108452Y-91369800D02*
X162020400Y-91457852D01*
X164766400Y-91369800D02*
X162108452Y-91369800D01*
%TO.N,/M43*%
X153696773Y-108427600D02*
X155326500Y-110057327D01*
X147834200Y-108427600D02*
X153696773Y-108427600D01*
%TO.N,/M33*%
X162866400Y-95226500D02*
X161692900Y-96400000D01*
X162866400Y-92169800D02*
X162866400Y-95226500D01*
%TO.N,/M26*%
X165600000Y-99400000D02*
X165200000Y-99000000D01*
X169121200Y-125121200D02*
X167600000Y-123600000D01*
X167600000Y-99400000D02*
X165600000Y-99400000D01*
X169121200Y-142971600D02*
X169121200Y-125121200D01*
%TO.N,/M44*%
X119800000Y-109000000D02*
X120000000Y-109000000D01*
X117600000Y-111200000D02*
X119800000Y-109000000D01*
%TO.N,/MEL2*%
X95000000Y-98800000D02*
X95000000Y-101800000D01*
%TO.N,/M39*%
X154600000Y-104569800D02*
X154466400Y-104569800D01*
X158116400Y-104569800D02*
X154600000Y-104569800D01*
%TO.N,/M52*%
X153800000Y-121000000D02*
X154800000Y-122000000D01*
X152839900Y-121000000D02*
X153800000Y-121000000D01*
%TO.N,/M26*%
X148358926Y-89374400D02*
X149524126Y-88209200D01*
X149524126Y-88209200D02*
X156698800Y-88209200D01*
X146042674Y-88107600D02*
X147309474Y-89374400D01*
X145294200Y-88107600D02*
X146042674Y-88107600D01*
X147309474Y-89374400D02*
X148358926Y-89374400D01*
%TO.N,/M36*%
X153492900Y-98600000D02*
X149743300Y-98600000D01*
X154709200Y-100909200D02*
X154200000Y-100400000D01*
X149743300Y-98600000D02*
X149600000Y-98743300D01*
X156698800Y-100909200D02*
X154709200Y-100909200D01*
%TO.N,/M37*%
X141366400Y-93591326D02*
X141366400Y-92369800D01*
X145812526Y-96994400D02*
X144769474Y-96994400D01*
X146561000Y-97742874D02*
X145812526Y-96994400D01*
X146561000Y-99534400D02*
X146561000Y-97742874D01*
X144769474Y-96994400D02*
X141366400Y-93591326D01*
X147834200Y-100807600D02*
X146561000Y-99534400D01*
%TO.N,/M32*%
X146561000Y-94460800D02*
X145294200Y-95727600D01*
X148358926Y-94460800D02*
X146561000Y-94460800D01*
X149727326Y-95829200D02*
X148358926Y-94460800D01*
X156698800Y-95829200D02*
X149727326Y-95829200D01*
%TO.N,/M48*%
X114600000Y-116200000D02*
X128000000Y-116200000D01*
%TO.N,/M39*%
X89023800Y-119823800D02*
X89000000Y-119800000D01*
X91576200Y-119823800D02*
X89023800Y-119823800D01*
X92200000Y-119200000D02*
X91576200Y-119823800D01*
X112905295Y-126802690D02*
X105302605Y-119200000D01*
X105302605Y-119200000D02*
X92200000Y-119200000D01*
X120539900Y-126802690D02*
X112905295Y-126802690D01*
%TO.N,/M28*%
X168242900Y-94469800D02*
X168316400Y-94543300D01*
X164066400Y-94469800D02*
X168242900Y-94469800D01*
X152050800Y-90749200D02*
X156698800Y-90749200D01*
X151200000Y-91600000D02*
X152050800Y-90749200D01*
%TO.N,/LAS_B3*%
X90818800Y-144594000D02*
X92288800Y-143124000D01*
X82594000Y-144594000D02*
X90818800Y-144594000D01*
X79400000Y-141400000D02*
X82594000Y-144594000D01*
X74000000Y-138400000D02*
X77000000Y-141400000D01*
X74000000Y-129200000D02*
X74000000Y-138400000D01*
X74200000Y-122400000D02*
X74200000Y-126600000D01*
X72800000Y-121000000D02*
X74200000Y-122400000D01*
X67951200Y-109951200D02*
X69000000Y-111000000D01*
X67951200Y-103423800D02*
X67951200Y-109951200D01*
%TO.N,/LAS_A3*%
X64449200Y-116452600D02*
X66866400Y-118869800D01*
X64449200Y-103750800D02*
X64449200Y-116452600D01*
X66400000Y-101800000D02*
X64449200Y-103750800D01*
X88937995Y-91000000D02*
X78000000Y-91000000D01*
X89653600Y-91715605D02*
X88937995Y-91000000D01*
X78000000Y-91000000D02*
X74400000Y-94600000D01*
X89653600Y-91946200D02*
X89653600Y-91715605D01*
X93964600Y-96257200D02*
X89653600Y-91946200D01*
%TO.N,/M44*%
X127390266Y-108337986D02*
X122862014Y-108337986D01*
X134800000Y-100928252D02*
X127390266Y-108337986D01*
X134800000Y-99600000D02*
X134800000Y-100928252D01*
%TO.N,+5V*%
X224016400Y-110819800D02*
X224016400Y-110619800D01*
X229016400Y-115819800D02*
X224016400Y-110819800D01*
X229016400Y-124619800D02*
X229016400Y-115819800D01*
X224016400Y-110619800D02*
X224008800Y-110612000D01*
X229016400Y-124619800D02*
X229063400Y-124632800D01*
X223816400Y-80819800D02*
X223816400Y-80569800D01*
X225866400Y-82869800D02*
X223816400Y-80819800D01*
X225866400Y-108719800D02*
X225866400Y-82869800D01*
X224066400Y-110519800D02*
X225866400Y-108719800D01*
X223816400Y-80569800D02*
X223780200Y-80563800D01*
X224066400Y-110519800D02*
X224008800Y-110612000D01*
X147816400Y-80469800D02*
X145316400Y-80469800D01*
X145316400Y-80469800D02*
X145294200Y-80487600D01*
X147816400Y-80469800D02*
X147834200Y-80487600D01*
X159216400Y-80569800D02*
X156716400Y-80569800D01*
X156716400Y-80569800D02*
X156698800Y-80589200D01*
X159216400Y-80569800D02*
X159238800Y-80589200D01*
X168816400Y-90069800D02*
X173516400Y-90069800D01*
X159366400Y-80619800D02*
X168816400Y-90069800D01*
X173516400Y-90069800D02*
X173539000Y-90088800D01*
X159366400Y-80619800D02*
X159238800Y-80589200D01*
X156616400Y-80519800D02*
X147916400Y-80519800D01*
X147916400Y-80519800D02*
X147834200Y-80487600D01*
X156616400Y-80519800D02*
X156698800Y-80589200D01*
X89966400Y-135119800D02*
X87466400Y-135119800D01*
X87466400Y-135119800D02*
X87458400Y-135123000D01*
X89966400Y-135119800D02*
X89998400Y-135123000D01*
X89416400Y-135019800D02*
X89416400Y-128769800D01*
X89416400Y-128769800D02*
X89414200Y-128747600D01*
X89416400Y-135019800D02*
X89998400Y-135123000D01*
X202316400Y-124119800D02*
X228916400Y-124119800D01*
X200466400Y-125969800D02*
X202316400Y-124119800D01*
X228916400Y-124119800D02*
X229063400Y-124632800D01*
X200466400Y-125969800D02*
X200463000Y-126004400D01*
%TO.N,GND*%
X101066400Y-106269800D02*
X101047400Y-106319400D01*
X110366400Y-99669800D02*
X110379400Y-99665200D01*
X92566400Y-135119800D02*
X92538400Y-135123000D01*
X95066400Y-135119800D02*
X95078400Y-135123000D01*
X91966400Y-128769800D02*
X91954200Y-128747600D01*
X94466400Y-128769800D02*
X94494200Y-128747600D01*
X93816400Y-128869800D02*
X94494200Y-128747600D01*
X77716400Y-80469800D02*
X77616400Y-80369800D01*
X77616400Y-75319800D02*
X77603200Y-75306000D01*
X77716400Y-80469800D02*
X77730200Y-80487600D01*
X72966400Y-114019800D02*
X72816400Y-114169800D01*
X72816400Y-124269800D02*
X72777200Y-124302600D01*
X72966400Y-114019800D02*
X72980400Y-114015600D01*
X73066400Y-103469800D02*
X73031200Y-103423800D01*
X73066400Y-113919800D02*
X72980400Y-114015600D01*
X73066400Y-103319800D02*
X73316400Y-103069800D01*
X73316400Y-92969800D02*
X73336000Y-92933600D01*
X73066400Y-103319800D02*
X73031200Y-103423800D01*
X82916400Y-120869800D02*
X83416400Y-120869800D01*
X83416400Y-120869800D02*
X83429000Y-120904400D01*
X85716400Y-95919800D02*
X86166400Y-95919800D01*
X86166400Y-95919800D02*
X86208400Y-95945200D01*
X73416400Y-92869800D02*
X73336000Y-92933600D01*
X156716400Y-123769800D02*
X156698800Y-123769200D01*
X159216400Y-123769800D02*
X159238800Y-123769200D01*
X145316400Y-123669800D02*
X145294200Y-123667600D01*
X147816400Y-123669800D02*
X147834200Y-123667600D01*
X156666400Y-123669800D02*
X156698800Y-123769200D01*
X197966400Y-126019800D02*
X197923000Y-126004400D01*
X197816400Y-125969800D02*
X197923000Y-126004400D01*
X159316400Y-123869800D02*
X159238800Y-123769200D01*
X189166400Y-75369800D02*
X189134600Y-75331400D01*
X187766400Y-88569800D02*
X187763000Y-88615600D01*
X229016400Y-132269800D02*
X229063400Y-132252800D01*
X223766400Y-78019800D02*
X223780200Y-78023800D01*
X94516400Y-128619800D02*
X94494200Y-128747600D01*
X145216400Y-123569800D02*
X145294200Y-123667600D01*
%TO.N,/MA3*%
X199766400Y-75319800D02*
X196766400Y-75319800D01*
X196766400Y-75319800D02*
X196754600Y-75331400D01*
X199766400Y-75319800D02*
X199802600Y-75331400D01*
%TO.N,Net-(R67-Pad1)*%
X105866400Y-117069800D02*
X105866400Y-118319800D01*
X109916400Y-113019800D02*
X105866400Y-117069800D01*
X105866400Y-118319800D02*
X105860800Y-118361800D01*
X109916400Y-113019800D02*
X109933800Y-112985200D01*
%TO.N,Net-(R68-Pad1)*%
X90866400Y-117219800D02*
X90866400Y-118319800D01*
X94766400Y-113319800D02*
X90866400Y-117219800D01*
X90866400Y-118319800D02*
X90820800Y-118361800D01*
X94766400Y-113319800D02*
X94776800Y-113304800D01*
%TO.N,/+VIN*%
X97616400Y-129319800D02*
X97616400Y-135119800D01*
X97066400Y-128769800D02*
X97616400Y-129319800D01*
X97616400Y-135119800D02*
X97618400Y-135123000D01*
X97066400Y-128769800D02*
X97034200Y-128747600D01*
%TO.N,/MAR*%
X75066400Y-80369800D02*
X75066400Y-75319800D01*
X75166400Y-80469800D02*
X75066400Y-80369800D01*
X75066400Y-75319800D02*
X75063200Y-75306000D01*
X75166400Y-80469800D02*
X75190200Y-80487600D01*
%TO.N,/MRST*%
X79866400Y-132019800D02*
X79866400Y-135119800D01*
X83116400Y-128769800D02*
X79866400Y-132019800D01*
X84316400Y-128769800D02*
X83116400Y-128769800D01*
X79866400Y-135119800D02*
X79838400Y-135123000D01*
X84316400Y-128769800D02*
X84334200Y-128747600D01*
%TO.N,/MA0*%
X101816400Y-129019800D02*
X101816400Y-134769800D01*
X102066400Y-128769800D02*
X101816400Y-129019800D01*
X101816400Y-134769800D02*
X101784000Y-134818200D01*
X102066400Y-128769800D02*
X102114200Y-128747600D01*
%TO.N,/MA1*%
X104366400Y-129019800D02*
X104366400Y-134769800D01*
X104616400Y-128769800D02*
X104366400Y-129019800D01*
X104366400Y-134769800D02*
X104324000Y-134818200D01*
X104616400Y-128769800D02*
X104654200Y-128747600D01*
%TO.N,/MA2*%
X106866400Y-129069800D02*
X106866400Y-134769800D01*
X107166400Y-128769800D02*
X106866400Y-129069800D01*
X106866400Y-134769800D02*
X106864000Y-134818200D01*
X107166400Y-128769800D02*
X107194200Y-128747600D01*
%TO.N,/MA3*%
X109416400Y-129069800D02*
X109416400Y-134769800D01*
X109716400Y-128769800D02*
X109416400Y-129069800D01*
X109416400Y-134769800D02*
X109404000Y-134818200D01*
X109716400Y-128769800D02*
X109734200Y-128747600D01*
%TO.N,/MA4*%
X111966400Y-129069800D02*
X111966400Y-134769800D01*
X112266400Y-128769800D02*
X111966400Y-129069800D01*
X111966400Y-134769800D02*
X111944000Y-134818200D01*
X112266400Y-128769800D02*
X112274200Y-128747600D01*
X73116400Y-74269800D02*
X73116400Y-66869800D01*
X71816400Y-75569800D02*
X73116400Y-74269800D01*
X71816400Y-95019800D02*
X71816400Y-75569800D01*
X71716400Y-95119800D02*
X71816400Y-95019800D01*
X71716400Y-97219800D02*
X71716400Y-95119800D01*
X103616400Y-120769800D02*
X95316400Y-120769800D01*
X111866400Y-129019800D02*
X103616400Y-120769800D01*
X73116400Y-66869800D02*
X73161600Y-66822400D01*
X111866400Y-129019800D02*
X112274200Y-128747600D01*
%TO.N,/MA5*%
X114516400Y-129019800D02*
X114516400Y-134769800D01*
X114766400Y-128769800D02*
X114516400Y-129019800D01*
X114516400Y-134769800D02*
X114484000Y-134818200D01*
X114766400Y-128769800D02*
X114814200Y-128747600D01*
X76616400Y-71419800D02*
X76616400Y-66869800D01*
X72316400Y-75719800D02*
X76616400Y-71419800D01*
X72316400Y-95219800D02*
X72316400Y-75719800D01*
X72516400Y-95419800D02*
X72316400Y-95219800D01*
X105416400Y-119969800D02*
X96816400Y-119969800D01*
X114416400Y-128969800D02*
X105416400Y-119969800D01*
X76616400Y-66869800D02*
X76661600Y-66822400D01*
X114416400Y-128969800D02*
X114814200Y-128747600D01*
%TO.N,/MA6*%
X117066400Y-129019800D02*
X117066400Y-134769800D01*
X117316400Y-128769800D02*
X117066400Y-129019800D01*
X117066400Y-134769800D02*
X117024000Y-134818200D01*
X117316400Y-128769800D02*
X117354200Y-128747600D01*
X220466400Y-85669800D02*
X223766400Y-85669800D01*
X185166400Y-120969800D02*
X220466400Y-85669800D01*
X185166400Y-126469800D02*
X185166400Y-125819800D01*
X182866400Y-128769800D02*
X185166400Y-126469800D01*
X178966400Y-128769800D02*
X182866400Y-128769800D01*
X134566400Y-138269800D02*
X135016400Y-138269800D01*
X133866400Y-137569800D02*
X134566400Y-138269800D01*
X130416400Y-137569800D02*
X133866400Y-137569800D01*
X129266400Y-138719800D02*
X130416400Y-137569800D01*
X129266400Y-139169800D02*
X129266400Y-138719800D01*
X223766400Y-85669800D02*
X223780200Y-85643800D01*
%TO.N,/MA7*%
X119566400Y-129069800D02*
X119566400Y-134769800D01*
X119866400Y-128769800D02*
X119566400Y-129069800D01*
X119566400Y-134769800D02*
X119564000Y-134818200D01*
X119866400Y-128769800D02*
X119894200Y-128747600D01*
X214916400Y-83119800D02*
X223766400Y-83119800D01*
X176516400Y-121519800D02*
X214916400Y-83119800D01*
X176516400Y-130569800D02*
X176516400Y-121519800D01*
X147616400Y-140719800D02*
X149866400Y-140719800D01*
X145766400Y-138869800D02*
X147616400Y-140719800D01*
X145166400Y-138869800D02*
X145766400Y-138869800D01*
X144966400Y-139069800D02*
X145166400Y-138869800D01*
X134716400Y-139069800D02*
X144966400Y-139069800D01*
X134016400Y-138369800D02*
X134716400Y-139069800D01*
X130716400Y-138369800D02*
X134016400Y-138369800D01*
X223766400Y-83119800D02*
X223780200Y-83103800D01*
%TO.N,/MA8*%
X124816400Y-128919800D02*
X124816400Y-134969800D01*
X124966400Y-128769800D02*
X124816400Y-128919800D01*
X124816400Y-134969800D02*
X124796400Y-134996000D01*
X124966400Y-128769800D02*
X124974200Y-128747600D01*
X115466400Y-143169800D02*
X114016400Y-143169800D01*
X123666400Y-134969800D02*
X115466400Y-143169800D01*
X124666400Y-134969800D02*
X123666400Y-134969800D01*
X114016400Y-143169800D02*
X113980400Y-143174800D01*
X124666400Y-134969800D02*
X124796400Y-134996000D01*
%TO.N,/MA9*%
X127366400Y-128869800D02*
X127366400Y-134969800D01*
X127466400Y-128769800D02*
X127366400Y-128869800D01*
X127366400Y-134969800D02*
X127336400Y-134996000D01*
X127466400Y-128769800D02*
X127514200Y-128747600D01*
%TO.N,/MA10*%
X129916400Y-128869800D02*
X129916400Y-134969800D01*
X130016400Y-128769800D02*
X129916400Y-128869800D01*
X129916400Y-134969800D02*
X129876400Y-134996000D01*
X130016400Y-128769800D02*
X130054200Y-128747600D01*
X163616400Y-146419800D02*
X164066400Y-146419800D01*
X163216400Y-146819800D02*
X163616400Y-146419800D01*
X133316400Y-146819800D02*
X163216400Y-146819800D01*
X129616400Y-143119800D02*
X133316400Y-146819800D01*
X129616400Y-143119800D02*
X129596200Y-143098600D01*
X129866400Y-136819800D02*
X129866400Y-135119800D01*
X127966400Y-138719800D02*
X129866400Y-136819800D01*
X127966400Y-140119800D02*
X127966400Y-138719800D01*
X129516400Y-141669800D02*
X127966400Y-140119800D01*
X129516400Y-143019800D02*
X129516400Y-141669800D01*
X129866400Y-135119800D02*
X129876400Y-134996000D01*
X129516400Y-143019800D02*
X129596200Y-143098600D01*
%TO.N,/MA11*%
X132416400Y-128919800D02*
X132416400Y-134996000D01*
X132566400Y-128769800D02*
X132416400Y-128919800D01*
X132566400Y-128769800D02*
X132594200Y-128747600D01*
X163466400Y-143719800D02*
X167416400Y-143719800D01*
X162116400Y-145069800D02*
X163466400Y-143719800D01*
X133016400Y-145069800D02*
X162116400Y-145069800D01*
X131066400Y-143119800D02*
X133016400Y-145069800D01*
X131066400Y-142069800D02*
X131066400Y-143119800D01*
X128466400Y-139469800D02*
X129466400Y-140469800D01*
X129466400Y-140469800D02*
X131066400Y-142069800D01*
X128466400Y-138869800D02*
X128466400Y-139469800D01*
X132316400Y-135019800D02*
X128466400Y-138869800D01*
X132316400Y-135019800D02*
X132416400Y-134996000D01*
X126116400Y-142369800D02*
X126116400Y-143069800D01*
X127616400Y-140869800D02*
X126116400Y-142369800D01*
X129466400Y-140469800D02*
X129766400Y-140169800D01*
X126116400Y-143069800D02*
X126096200Y-143098600D01*
%TO.N,/MA12*%
X134966400Y-128919800D02*
X134966400Y-134969800D01*
X135116400Y-128769800D02*
X134966400Y-128919800D01*
X134966400Y-134969800D02*
X134956400Y-134996000D01*
X135116400Y-128769800D02*
X135134200Y-128747600D01*
X177516400Y-73469800D02*
X173266400Y-73469800D01*
X179016400Y-74969800D02*
X177516400Y-73469800D01*
X179016400Y-91819800D02*
X179016400Y-74969800D01*
X179016400Y-113169800D02*
X179016400Y-112969800D01*
X170666400Y-121519800D02*
X179016400Y-113169800D01*
X170666400Y-124269800D02*
X170666400Y-121519800D01*
X145616400Y-137919800D02*
X148216400Y-137919800D01*
X145066400Y-137369800D02*
X145616400Y-137919800D01*
X137416400Y-137369800D02*
X145066400Y-137369800D01*
X135066400Y-135019800D02*
X137416400Y-137369800D01*
X135066400Y-135019800D02*
X134956400Y-134996000D01*
%TO.N,/MA13*%
X137516400Y-128919800D02*
X137516400Y-134969800D01*
X137666400Y-128769800D02*
X137516400Y-128919800D01*
X137516400Y-134969800D02*
X137496400Y-134996000D01*
X137666400Y-128769800D02*
X137674200Y-128747600D01*
X176316400Y-115219800D02*
X176316400Y-84219800D01*
X168966400Y-122569800D02*
X176316400Y-115219800D01*
X140666400Y-138169800D02*
X144766400Y-138169800D01*
%TO.N,/MA14*%
X140066400Y-128869800D02*
X140066400Y-134969800D01*
X140166400Y-128769800D02*
X140066400Y-128869800D01*
X140066400Y-134969800D02*
X140036400Y-134996000D01*
X140166400Y-128769800D02*
X140214200Y-128747600D01*
X160566400Y-143119800D02*
X162016400Y-143119800D01*
X159116400Y-144569800D02*
X160566400Y-143119800D01*
X155966400Y-144569800D02*
X159116400Y-144569800D01*
X146916400Y-135519800D02*
X155966400Y-144569800D01*
X144366400Y-135519800D02*
X146916400Y-135519800D01*
X143016400Y-136869800D02*
X144366400Y-135519800D01*
X142016400Y-136869800D02*
X143016400Y-136869800D01*
X140166400Y-135019800D02*
X142016400Y-136869800D01*
X162016400Y-143119800D02*
X162029400Y-143098600D01*
X140166400Y-135019800D02*
X140036400Y-134996000D01*
%TO.N,/MA15*%
X142616400Y-128869800D02*
X142616400Y-134969800D01*
X142716400Y-128769800D02*
X142616400Y-128869800D01*
X142616400Y-134969800D02*
X142576400Y-134996000D01*
X142716400Y-128769800D02*
X142754200Y-128747600D01*
X155116400Y-143069800D02*
X158516400Y-143069800D01*
X147066400Y-135019800D02*
X155116400Y-143069800D01*
X142716400Y-135019800D02*
X147066400Y-135019800D01*
X158516400Y-143069800D02*
X158529400Y-143098600D01*
X142716400Y-135019800D02*
X142576400Y-134996000D01*
%TO.N,/MRX0*%
X114766400Y-80469800D02*
X114766400Y-75419800D01*
X114766400Y-75419800D02*
X114738000Y-75382200D01*
X114766400Y-80469800D02*
X114814200Y-80487600D01*
%TO.N,/MTX0*%
X112216400Y-80419800D02*
X112216400Y-75419800D01*
X112266400Y-80469800D02*
X112216400Y-80419800D01*
X112216400Y-75419800D02*
X112198000Y-75382200D01*
X112266400Y-80469800D02*
X112274200Y-80487600D01*
%TO.N,/M2*%
X109666400Y-80419800D02*
X109666400Y-75419800D01*
X109734200Y-80487600D02*
X109666400Y-80419800D01*
X109666400Y-75419800D02*
X109658000Y-75382200D01*
X115666400Y-69319800D02*
X115666400Y-66969800D01*
X109716400Y-75269800D02*
X115666400Y-69319800D01*
X115666400Y-66969800D02*
X115681200Y-66924000D01*
X109716400Y-75269800D02*
X109658000Y-75382200D01*
%TO.N,/M3*%
X107166400Y-80469800D02*
X107166400Y-75419800D01*
X107166400Y-75419800D02*
X107118000Y-75382200D01*
X107166400Y-80469800D02*
X107194200Y-80487600D01*
X107266400Y-75369800D02*
X112516400Y-70119800D01*
X107266400Y-75369800D02*
X107118000Y-75382200D01*
%TO.N,/M4*%
X104616400Y-80469800D02*
X104616400Y-75419800D01*
X104616400Y-75419800D02*
X104578000Y-75382200D01*
X104616400Y-80469800D02*
X104654200Y-80487600D01*
X83366400Y-66719800D02*
X81916400Y-66719800D01*
X84816400Y-65269800D02*
X83366400Y-66719800D01*
X86716400Y-65269800D02*
X84816400Y-65269800D01*
X94466400Y-73019800D02*
X86716400Y-65269800D01*
X102166400Y-73019800D02*
X94466400Y-73019800D01*
X104466400Y-75319800D02*
X102166400Y-73019800D01*
X81916400Y-66719800D02*
X81899200Y-66720800D01*
X104466400Y-75319800D02*
X104578000Y-75382200D01*
%TO.N,/M5*%
X102066400Y-80469800D02*
X102066400Y-75419800D01*
X102066400Y-75419800D02*
X102038000Y-75382200D01*
X102066400Y-80469800D02*
X102114200Y-80487600D01*
X87566400Y-66769800D02*
X85416400Y-66769800D01*
X94316400Y-73519800D02*
X87566400Y-66769800D01*
X100066400Y-73519800D02*
X94316400Y-73519800D01*
X101916400Y-75369800D02*
X100066400Y-73519800D01*
X85416400Y-66769800D02*
X85399200Y-66720800D01*
X101916400Y-75369800D02*
X102038000Y-75382200D01*
%TO.N,/M6*%
X99516400Y-80419800D02*
X99516400Y-75419800D01*
X99566400Y-80469800D02*
X99516400Y-80419800D01*
X99516400Y-75419800D02*
X99498000Y-75382200D01*
X99566400Y-80469800D02*
X99574200Y-80487600D01*
X129966400Y-67819800D02*
X131816400Y-67819800D01*
X127416400Y-70369800D02*
X129966400Y-67819800D01*
X115816400Y-71369800D02*
X118966400Y-71369800D01*
%TO.N,/M7*%
X96966400Y-80419800D02*
X96966400Y-75419800D01*
X97034200Y-80487600D02*
X96966400Y-80419800D01*
X96966400Y-75419800D02*
X96958000Y-75382200D01*
X109216400Y-63969800D02*
X126316400Y-63969800D01*
X106466400Y-66719800D02*
X109216400Y-63969800D01*
%TO.N,/M8*%
X92866400Y-80369800D02*
X92866400Y-75319800D01*
X92966400Y-80469800D02*
X92866400Y-80369800D01*
X92866400Y-75319800D02*
X92843200Y-75306000D01*
X92966400Y-80469800D02*
X92970200Y-80487600D01*
X143416400Y-67169800D02*
X143416400Y-66969800D01*
X135966400Y-74619800D02*
X143416400Y-67169800D01*
X135966400Y-78369800D02*
X135966400Y-74619800D01*
X123916400Y-77069800D02*
X123916400Y-78369800D01*
X123266400Y-76419800D02*
X123916400Y-77069800D01*
X123266400Y-72869800D02*
X123266400Y-76419800D01*
X119866400Y-69469800D02*
X123266400Y-72869800D01*
X119166400Y-69469800D02*
X119866400Y-69469800D01*
X117416400Y-67719800D02*
X119166400Y-69469800D01*
X117416400Y-66619800D02*
X117416400Y-67719800D01*
X143416400Y-66969800D02*
X143443400Y-66949400D01*
%TO.N,/M9*%
X90316400Y-80369800D02*
X90316400Y-75319800D01*
X90416400Y-80469800D02*
X90316400Y-80369800D01*
X90316400Y-75319800D02*
X90303200Y-75306000D01*
X90416400Y-80469800D02*
X90430200Y-80487600D01*
X112466400Y-64769800D02*
X125566400Y-64769800D01*
X107266400Y-69969800D02*
X112466400Y-64769800D01*
X94966400Y-69969800D02*
X107266400Y-69969800D01*
%TO.N,/M10*%
X87766400Y-80369800D02*
X87766400Y-75319800D01*
X87866400Y-80469800D02*
X87766400Y-80369800D01*
X87766400Y-75319800D02*
X87763200Y-75306000D01*
X87866400Y-80469800D02*
X87890200Y-80487600D01*
%TO.N,/M11*%
X85266400Y-80419800D02*
X85266400Y-75319800D01*
X85316400Y-80469800D02*
X85266400Y-80419800D01*
X85266400Y-75319800D02*
X85223200Y-75306000D01*
X85316400Y-80469800D02*
X85350200Y-80487600D01*
%TO.N,/M12*%
X82716400Y-80419800D02*
X82716400Y-75319800D01*
X82766400Y-80469800D02*
X82716400Y-80419800D01*
X82716400Y-75319800D02*
X82683200Y-75306000D01*
X82766400Y-80469800D02*
X82810200Y-80487600D01*
%TO.N,/M13*%
X80166400Y-80369800D02*
X80166400Y-75319800D01*
X80266400Y-80469800D02*
X80166400Y-80369800D01*
X80166400Y-75319800D02*
X80143200Y-75306000D01*
X80266400Y-80469800D02*
X80270200Y-80487600D01*
%TO.N,/MTX3*%
X204216400Y-103019800D02*
X223966400Y-103019800D01*
X183016400Y-124219800D02*
X204216400Y-103019800D01*
X180216400Y-124219800D02*
X183016400Y-124219800D01*
X178766400Y-125669800D02*
X180216400Y-124219800D01*
X178766400Y-127869800D02*
X178766400Y-125669800D01*
X177866400Y-128769800D02*
X178766400Y-127869800D01*
X156416400Y-132919800D02*
X157466400Y-132919800D01*
X149916400Y-126419800D02*
X156416400Y-132919800D01*
X148416400Y-126419800D02*
X149916400Y-126419800D01*
X147466400Y-125469800D02*
X148416400Y-126419800D01*
X144166400Y-125469800D02*
X147466400Y-125469800D01*
X142666400Y-123969800D02*
X144166400Y-125469800D01*
X140466400Y-112719800D02*
X140466400Y-121769800D01*
X135766400Y-108019800D02*
X140466400Y-112719800D01*
X135766400Y-98269800D02*
X135766400Y-108019800D01*
X134966400Y-93869800D02*
X134966400Y-93969800D01*
X122866400Y-81769800D02*
X134966400Y-93869800D01*
X121166400Y-81769800D02*
X122866400Y-81769800D01*
X119916400Y-80519800D02*
X121166400Y-81769800D01*
X223966400Y-103019800D02*
X224008800Y-102992000D01*
X119916400Y-80519800D02*
X119894200Y-80487600D01*
X119616400Y-80119800D02*
X119616400Y-75569800D01*
X119866400Y-80369800D02*
X119616400Y-80119800D01*
X119616400Y-75569800D02*
X119614800Y-75534600D01*
X119866400Y-80369800D02*
X119894200Y-80487600D01*
%TO.N,/MRX3*%
X188316400Y-94019800D02*
X190616400Y-96319800D01*
X170766400Y-84069800D02*
X170766400Y-84819800D01*
X167666400Y-80969800D02*
X170766400Y-84069800D01*
X138216400Y-78369800D02*
X140266400Y-76319800D01*
X122166400Y-80219800D02*
X122166400Y-75569800D01*
X122434200Y-80487600D02*
X122166400Y-80219800D01*
X122166400Y-75569800D02*
X122154800Y-75534600D01*
%TO.N,/MTX2*%
X124716400Y-80219800D02*
X124716400Y-75569800D01*
X124966400Y-80469800D02*
X124716400Y-80219800D01*
X124716400Y-75569800D02*
X124694800Y-75534600D01*
X124966400Y-80469800D02*
X124974200Y-80487600D01*
X172966400Y-82169800D02*
X172966400Y-82619800D01*
X169616400Y-78819800D02*
X172966400Y-82169800D01*
X169616400Y-74319800D02*
X169616400Y-78819800D01*
X150766400Y-65619800D02*
X151966400Y-65619800D01*
X150116400Y-66269800D02*
X150766400Y-65619800D01*
X148316400Y-66269800D02*
X150116400Y-66269800D01*
X147566400Y-65519800D02*
X148316400Y-66269800D01*
X137616400Y-65519800D02*
X147566400Y-65519800D01*
X136866400Y-66269800D02*
X137616400Y-65519800D01*
X136566400Y-66269800D02*
X136866400Y-66269800D01*
X127216400Y-65519800D02*
X129516400Y-65519800D01*
X125766400Y-66969800D02*
X127216400Y-65519800D01*
X125766400Y-67869800D02*
X125766400Y-66969800D01*
X124866400Y-68769800D02*
X125766400Y-67869800D01*
X123766400Y-72719800D02*
X123766400Y-69869800D01*
X124666400Y-73619800D02*
X123766400Y-72719800D01*
X124666400Y-75419800D02*
X124666400Y-73619800D01*
X124666400Y-75419800D02*
X124694800Y-75534600D01*
%TO.N,/MRX2*%
X127266400Y-80269800D02*
X127266400Y-75569800D01*
X127466400Y-80469800D02*
X127266400Y-80269800D01*
X127266400Y-75569800D02*
X127234800Y-75534600D01*
X127466400Y-80469800D02*
X127514200Y-80487600D01*
X187716400Y-83269800D02*
X187716400Y-83519800D01*
X180966400Y-76519800D02*
X187716400Y-83269800D01*
X180966400Y-75319800D02*
X180966400Y-76519800D01*
X132866400Y-69619800D02*
X132866400Y-68269800D01*
X127266400Y-75219800D02*
X132866400Y-69619800D01*
X127266400Y-75419800D02*
X127266400Y-75219800D01*
X187716400Y-83519800D02*
X187763000Y-83535600D01*
X127266400Y-75419800D02*
X127234800Y-75534600D01*
%TO.N,/MTX1*%
X129816400Y-80269800D02*
X129816400Y-75569800D01*
X130016400Y-80469800D02*
X129816400Y-80269800D01*
X129816400Y-75569800D02*
X129774800Y-75534600D01*
X130016400Y-80469800D02*
X130054200Y-80487600D01*
X132716400Y-67019800D02*
X127866400Y-67019800D01*
X133666400Y-67969800D02*
X132716400Y-67019800D01*
X133666400Y-69469800D02*
X133666400Y-67969800D01*
X129816400Y-73319800D02*
X133666400Y-69469800D01*
X129816400Y-75419800D02*
X129816400Y-73319800D01*
X127866400Y-67019800D02*
X127817200Y-66974800D01*
X129816400Y-75419800D02*
X129774800Y-75534600D01*
%TO.N,/MRX1*%
X132316400Y-80219800D02*
X132316400Y-75569800D01*
X132566400Y-80469800D02*
X132316400Y-80219800D01*
X132316400Y-75569800D02*
X132314800Y-75534600D01*
X132566400Y-80469800D02*
X132594200Y-80487600D01*
X133866400Y-73919800D02*
X133866400Y-70369800D01*
X132366400Y-75419800D02*
X133866400Y-73919800D01*
X132366400Y-75419800D02*
X132314800Y-75534600D01*
%TO.N,/M20*%
X134866400Y-80219800D02*
X134866400Y-75569800D01*
X135134200Y-80487600D02*
X134866400Y-80219800D01*
X134866400Y-75569800D02*
X134854800Y-75534600D01*
X134866400Y-73469800D02*
X134866400Y-75419800D01*
X141666400Y-66669800D02*
X134866400Y-73469800D01*
X176216400Y-70769800D02*
X176216400Y-69319800D01*
X180166400Y-74719800D02*
X176216400Y-70769800D01*
X134866400Y-75419800D02*
X134854800Y-75534600D01*
%TO.N,/M21*%
X137416400Y-80219800D02*
X137416400Y-75569800D01*
X137666400Y-80469800D02*
X137416400Y-80219800D01*
X137416400Y-75569800D02*
X137394800Y-75534600D01*
X137666400Y-80469800D02*
X137674200Y-80487600D01*
X139666400Y-75519800D02*
X137516400Y-75519800D01*
X146166400Y-69019800D02*
X139666400Y-75519800D01*
X150216400Y-69019800D02*
X146166400Y-69019800D01*
X153616400Y-65619800D02*
X150216400Y-69019800D01*
X161016400Y-65619800D02*
X153616400Y-65619800D01*
X164216400Y-68819800D02*
X161016400Y-65619800D01*
X171766400Y-68819800D02*
X164216400Y-68819800D01*
X137516400Y-75519800D02*
X137394800Y-75534600D01*
%TO.N,/M22*%
X130266400Y-101219800D02*
X129266400Y-101219800D01*
X144016400Y-87469800D02*
X130266400Y-101219800D01*
X144016400Y-84319800D02*
X144016400Y-87469800D01*
X145266400Y-83069800D02*
X144016400Y-84319800D01*
X145266400Y-83069800D02*
X145294200Y-83027600D01*
X151816400Y-79719800D02*
X153266400Y-79719800D01*
X151516400Y-80019800D02*
X151816400Y-79719800D01*
X149166400Y-80019800D02*
X151516400Y-80019800D01*
X148316400Y-79169800D02*
X149166400Y-80019800D01*
X144766400Y-79169800D02*
X148316400Y-79169800D01*
X144016400Y-79919800D02*
X144766400Y-79169800D01*
X144016400Y-81719800D02*
X144016400Y-79919800D01*
X145216400Y-82919800D02*
X144016400Y-81719800D01*
X145216400Y-82919800D02*
X145294200Y-83027600D01*
%TO.N,/M23*%
X104466400Y-108169800D02*
X90866400Y-108169800D01*
X112416400Y-100219800D02*
X104466400Y-108169800D01*
X125216400Y-97019800D02*
X123566400Y-98669800D01*
X133716400Y-97019800D02*
X125216400Y-97019800D01*
X143416400Y-87319800D02*
X133716400Y-97019800D01*
X143416400Y-82519800D02*
X143416400Y-87319800D01*
X90866400Y-108169800D02*
X90820800Y-108201800D01*
X158266400Y-83119800D02*
X159216400Y-83119800D01*
X157166400Y-82019800D02*
X158266400Y-83119800D01*
X148866400Y-82019800D02*
X157166400Y-82019800D01*
X147866400Y-83019800D02*
X148866400Y-82019800D01*
X159216400Y-83119800D02*
X159238800Y-83129200D01*
X147866400Y-83019800D02*
X147834200Y-83027600D01*
%TO.N,/M24*%
X113716400Y-95619800D02*
X112966400Y-95619800D01*
X114566400Y-96469800D02*
X113716400Y-95619800D01*
X114716400Y-96469800D02*
X114566400Y-96469800D01*
X116366400Y-98119800D02*
X114716400Y-96469800D01*
X123016400Y-98119800D02*
X116366400Y-98119800D01*
X124616400Y-96519800D02*
X123016400Y-98119800D01*
X133566400Y-96519800D02*
X124616400Y-96519800D01*
X142616400Y-87469800D02*
X133566400Y-96519800D01*
X142616400Y-86419800D02*
X142616400Y-87469800D01*
X112966400Y-95619800D02*
X112928600Y-95589400D01*
%TO.N,/M25*%
X158216400Y-85619800D02*
X159216400Y-85619800D01*
X157166400Y-84569800D02*
X158216400Y-85619800D01*
X148816400Y-84569800D02*
X157166400Y-84569800D01*
X147866400Y-85519800D02*
X148816400Y-84569800D01*
X159216400Y-85619800D02*
X159238800Y-85669200D01*
X147866400Y-85519800D02*
X147834200Y-85567600D01*
X186266400Y-125519800D02*
X186266400Y-130069800D01*
X169316400Y-87869800D02*
X173166400Y-87869800D01*
X164466400Y-83019800D02*
X169316400Y-87869800D01*
X164466400Y-81019800D02*
X164466400Y-83019800D01*
%TO.N,/M26*%
X156666400Y-88169800D02*
X156698800Y-88209200D01*
X169116400Y-141219800D02*
X169116400Y-142969800D01*
X153266400Y-102569800D02*
X153566400Y-102569800D01*
X150966400Y-100269800D02*
X153266400Y-102569800D01*
X169116400Y-142969800D02*
X169121200Y-142971600D01*
%TO.N,/M27*%
X158216400Y-88169800D02*
X159216400Y-88169800D01*
X157016400Y-86969800D02*
X158216400Y-88169800D01*
X148966400Y-86969800D02*
X157016400Y-86969800D01*
X147866400Y-88069800D02*
X148966400Y-86969800D01*
X159216400Y-88169800D02*
X159238800Y-88209200D01*
X147866400Y-88069800D02*
X147834200Y-88107600D01*
X181366400Y-137169800D02*
X181366400Y-142869800D01*
X173966400Y-129769800D02*
X181366400Y-137169800D01*
X173966400Y-119319800D02*
X173966400Y-129769800D01*
X165516400Y-90569800D02*
X169416400Y-94469800D01*
X163366400Y-90569800D02*
X165516400Y-90569800D01*
X181366400Y-142869800D02*
X181409600Y-142870000D01*
%TO.N,/M28*%
X172266400Y-137269800D02*
X172266400Y-127969800D01*
X177866400Y-142869800D02*
X174241400Y-139244800D01*
X174241400Y-139244800D02*
X172266400Y-137269800D01*
X177866400Y-142869800D02*
X177909600Y-142870000D01*
X145266400Y-90869800D02*
X145266400Y-90669800D01*
X145266400Y-90669800D02*
X145294200Y-90647600D01*
%TO.N,/M29*%
X158216400Y-90719800D02*
X159216400Y-90719800D01*
X157116400Y-89619800D02*
X158216400Y-90719800D01*
X148866400Y-89619800D02*
X157116400Y-89619800D01*
X147866400Y-90619800D02*
X148866400Y-89619800D01*
X159216400Y-90719800D02*
X159238800Y-90749200D01*
X147866400Y-90619800D02*
X147834200Y-90647600D01*
%TO.N,/M30*%
X157616400Y-93269800D02*
X156716400Y-93269800D01*
X159016400Y-91869800D02*
X157616400Y-93269800D01*
X159666400Y-91869800D02*
X159016400Y-91869800D01*
X163116400Y-88419800D02*
X159666400Y-91869800D01*
X163116400Y-85469800D02*
X163116400Y-88419800D01*
X166866400Y-74869800D02*
X166866400Y-81719800D01*
X174716400Y-67019800D02*
X166866400Y-74869800D01*
X156716400Y-93269800D02*
X156698800Y-93289200D01*
X174716400Y-67019800D02*
X174761600Y-67000200D01*
%TO.N,/M31*%
X158216400Y-93319800D02*
X159216400Y-93319800D01*
X157116400Y-94419800D02*
X158216400Y-93319800D01*
X149066400Y-94419800D02*
X157116400Y-94419800D01*
X147834200Y-93187600D02*
X149066400Y-94419800D01*
X159216400Y-93319800D02*
X159238800Y-93289200D01*
X192066400Y-69919800D02*
X192066400Y-66819800D01*
X184566400Y-77419800D02*
X192066400Y-69919800D01*
X192066400Y-66819800D02*
X192109800Y-66771600D01*
%TO.N,/M32*%
X157616400Y-95819800D02*
X156716400Y-95819800D01*
X159016400Y-94419800D02*
X157616400Y-95819800D01*
X159666400Y-94419800D02*
X159016400Y-94419800D01*
X161066400Y-93019800D02*
X159666400Y-94419800D01*
X161066400Y-91119800D02*
X161066400Y-93019800D01*
X164916400Y-87269800D02*
X161066400Y-91119800D01*
X186066400Y-67719800D02*
X186066400Y-74769800D01*
X186816400Y-66969800D02*
X186066400Y-67719800D01*
X156716400Y-95819800D02*
X156698800Y-95829200D01*
X186816400Y-66969800D02*
X186846800Y-66949400D01*
X145266400Y-96469800D02*
X145266400Y-95769800D01*
X145266400Y-95769800D02*
X145294200Y-95727600D01*
%TO.N,/M33*%
X158216400Y-95869800D02*
X159216400Y-95869800D01*
X157116400Y-96969800D02*
X157241400Y-96844800D01*
X157241400Y-96844800D02*
X158216400Y-95869800D01*
X149066400Y-96969800D02*
X157116400Y-96969800D01*
X147866400Y-95769800D02*
X149066400Y-96969800D01*
X159216400Y-95869800D02*
X159238800Y-95829200D01*
X147866400Y-95769800D02*
X147834200Y-95727600D01*
X183366400Y-71469800D02*
X183366400Y-66969800D01*
X185266400Y-73369800D02*
X183366400Y-71469800D01*
X185266400Y-75519800D02*
X185266400Y-73369800D01*
X184666400Y-76119800D02*
X185266400Y-75519800D01*
X184316400Y-76119800D02*
X184666400Y-76119800D01*
X183466400Y-76969800D02*
X184316400Y-76119800D01*
X183466400Y-77419800D02*
X183466400Y-76969800D01*
X157241400Y-96844800D02*
X157816400Y-97419800D01*
X183366400Y-66969800D02*
X183346800Y-66949400D01*
%TO.N,/M34*%
X163666400Y-97769800D02*
X163666400Y-98219800D01*
X165266400Y-96169800D02*
X163666400Y-97769800D01*
X165266400Y-95769800D02*
X165266400Y-96169800D01*
X165766400Y-95269800D02*
X165266400Y-95769800D01*
X170466400Y-95269800D02*
X165766400Y-95269800D01*
X175816400Y-89919800D02*
X170466400Y-95269800D01*
X175816400Y-84369800D02*
X175816400Y-89919800D01*
X172266400Y-80819800D02*
X175816400Y-84369800D01*
X172266400Y-71519800D02*
X172266400Y-80819800D01*
X176816400Y-66969800D02*
X172266400Y-71519800D01*
X176816400Y-66419800D02*
X176816400Y-66969800D01*
X177916400Y-65319800D02*
X176816400Y-66419800D01*
X202766400Y-65319800D02*
X177916400Y-65319800D01*
X204266400Y-66819800D02*
X202766400Y-65319800D01*
X204266400Y-66819800D02*
X204271200Y-66847800D01*
X140566400Y-92719800D02*
X140566400Y-94469800D01*
X140216400Y-92369800D02*
X140566400Y-92719800D01*
X118166400Y-92369800D02*
X131616400Y-92369800D01*
X117916400Y-92119800D02*
X118166400Y-92369800D01*
X101866400Y-89869800D02*
X115666400Y-89869800D01*
X100966400Y-88969800D02*
X101866400Y-89869800D01*
X92716400Y-70619800D02*
X92716400Y-70169800D01*
X94316400Y-72219800D02*
X92716400Y-70619800D01*
X108366400Y-72219800D02*
X94316400Y-72219800D01*
X115116400Y-65469800D02*
X108366400Y-72219800D01*
X125166400Y-65469800D02*
X115116400Y-65469800D01*
X125266400Y-65569800D02*
X125166400Y-65469800D01*
X126516400Y-65569800D02*
X125266400Y-65569800D01*
X127466400Y-64619800D02*
X126516400Y-65569800D01*
X131416400Y-64619800D02*
X127466400Y-64619800D01*
X135216400Y-64469800D02*
X134766400Y-64469800D01*
X136516400Y-63169800D02*
X135216400Y-64469800D01*
X173516400Y-63169800D02*
X136516400Y-63169800D01*
X176716400Y-66369800D02*
X173516400Y-63169800D01*
X176716400Y-66369800D02*
X176816400Y-66419800D01*
%TO.N,/M35*%
X158266400Y-98369800D02*
X159216400Y-98369800D01*
X157166400Y-99469800D02*
X158266400Y-98369800D01*
X149066400Y-99469800D02*
X157166400Y-99469800D01*
X147866400Y-98269800D02*
X149066400Y-99469800D01*
X159216400Y-98369800D02*
X159238800Y-98369200D01*
X147866400Y-98269800D02*
X147834200Y-98267600D01*
X187866400Y-93369800D02*
X200816400Y-80419800D01*
X177116400Y-93369800D02*
X187866400Y-93369800D01*
X174516400Y-93369800D02*
X175516400Y-93369800D01*
X171816400Y-96069800D02*
X174516400Y-93369800D01*
X166066400Y-96069800D02*
X171816400Y-96069800D01*
%TO.N,/M36*%
X156316400Y-100919800D02*
X156666400Y-100919800D01*
X156666400Y-100919800D02*
X156698800Y-100909200D01*
X90716400Y-66819800D02*
X90687600Y-66822400D01*
X131066400Y-92919800D02*
X133566400Y-95419800D01*
X117116400Y-92919800D02*
X131066400Y-92919800D01*
X102316400Y-91469800D02*
X115666400Y-91469800D01*
X102066400Y-91219800D02*
X102316400Y-91469800D01*
X100616400Y-91219800D02*
X102066400Y-91219800D01*
X100466400Y-91369800D02*
X100616400Y-91219800D01*
X99866400Y-91369800D02*
X100466400Y-91369800D01*
X96166400Y-87669800D02*
X99866400Y-91369800D01*
X96166400Y-82069800D02*
X96166400Y-87669800D01*
X94316400Y-80219800D02*
X96166400Y-82069800D01*
X94316400Y-75569800D02*
X94316400Y-80219800D01*
X94616400Y-70769800D02*
X94616400Y-71419800D01*
X90766400Y-66919800D02*
X94616400Y-70769800D01*
X90766400Y-66919800D02*
X90687600Y-66822400D01*
%TO.N,/M37*%
X158266400Y-100919800D02*
X159216400Y-100919800D01*
X156866400Y-102319800D02*
X158266400Y-100919800D01*
X156016400Y-102319800D02*
X156866400Y-102319800D01*
X154966400Y-103369800D02*
X156016400Y-102319800D01*
X151716400Y-103369800D02*
X154666400Y-103369800D01*
X154666400Y-103369800D02*
X154966400Y-103369800D01*
X149166400Y-100819800D02*
X151716400Y-103369800D01*
X147866400Y-100819800D02*
X149166400Y-100819800D01*
X159216400Y-100919800D02*
X159238800Y-100909200D01*
X147866400Y-100819800D02*
X147834200Y-100807600D01*
X92016400Y-72169800D02*
X91816400Y-72169800D01*
X95716400Y-75869800D02*
X92016400Y-72169800D01*
X95716400Y-80969800D02*
X95716400Y-75869800D01*
X101716400Y-86969800D02*
X95716400Y-80969800D01*
X116416400Y-86969800D02*
X101716400Y-86969800D01*
X122616400Y-91269800D02*
X118316400Y-86969800D01*
X131266400Y-91269800D02*
X122616400Y-91269800D01*
%TO.N,/M38*%
X157716400Y-103419800D02*
X156716400Y-103419800D01*
X159116400Y-102019800D02*
X157716400Y-103419800D01*
X159716400Y-102019800D02*
X159116400Y-102019800D01*
X160466400Y-101269800D02*
X159716400Y-102019800D01*
X160466400Y-94269800D02*
X160466400Y-101269800D01*
X161566400Y-93169800D02*
X160466400Y-94269800D01*
X161566400Y-91269800D02*
X161566400Y-93169800D01*
X163316400Y-89519800D02*
X161566400Y-91269800D01*
X163766400Y-89519800D02*
X163316400Y-89519800D01*
X162066400Y-78819800D02*
X162066400Y-79719800D01*
X157316400Y-74069800D02*
X162066400Y-78819800D01*
X157316400Y-67469800D02*
X157316400Y-74069800D01*
X157666400Y-67119800D02*
X157316400Y-67469800D01*
X156716400Y-103419800D02*
X156698800Y-103449200D01*
X157666400Y-67119800D02*
X157687600Y-67076400D01*
X133616400Y-110969800D02*
X133716400Y-110969800D01*
X130216400Y-114369800D02*
X133616400Y-110969800D01*
X130216400Y-117819800D02*
X130216400Y-114369800D01*
X121266400Y-126769800D02*
X130216400Y-117819800D01*
X121266400Y-133819800D02*
X121266400Y-126769800D01*
X134166400Y-139169800D02*
X133716400Y-139169800D01*
X134666400Y-139669800D02*
X134166400Y-139169800D01*
X145466400Y-139669800D02*
X134666400Y-139669800D01*
X160166400Y-104069800D02*
X160166400Y-104519800D01*
X160366400Y-103869800D02*
X160166400Y-104069800D01*
X160366400Y-102719800D02*
X160366400Y-103869800D01*
X159766400Y-102119800D02*
X160366400Y-102719800D01*
X159766400Y-102119800D02*
X159716400Y-102019800D01*
%TO.N,/M39*%
X151066400Y-103369800D02*
X147866400Y-103369800D01*
X151966400Y-104269800D02*
X151066400Y-103369800D01*
X154166400Y-104269800D02*
X151966400Y-104269800D01*
X154466400Y-104569800D02*
X154166400Y-104269800D01*
X159216400Y-103469800D02*
X158116400Y-104569800D01*
X147866400Y-103369800D02*
X147834200Y-103347600D01*
X159216400Y-103469800D02*
X159238800Y-103449200D01*
%TO.N,/M40*%
X88916400Y-117869800D02*
X88916400Y-102846400D01*
X90416400Y-119369800D02*
X88916400Y-117869800D01*
X91216400Y-119369800D02*
X90416400Y-119369800D01*
X92116400Y-118469800D02*
X91216400Y-119369800D01*
X92116400Y-116969800D02*
X92116400Y-118469800D01*
X92616400Y-116469800D02*
X92116400Y-116969800D01*
X93316400Y-116469800D02*
X92616400Y-116469800D01*
X93716400Y-116869800D02*
X93316400Y-116469800D01*
X103966400Y-116869800D02*
X93716400Y-116869800D01*
X108866400Y-111969800D02*
X103966400Y-116869800D01*
X124366400Y-111969800D02*
X108866400Y-111969800D01*
X135566400Y-113669800D02*
X132016400Y-113669800D01*
X137366400Y-111869800D02*
X135566400Y-113669800D01*
X156716400Y-106969800D02*
X156716400Y-106019800D01*
X158116400Y-108369800D02*
X156716400Y-106969800D01*
X158116400Y-108969800D02*
X158116400Y-108369800D01*
X159116400Y-109969800D02*
X158116400Y-108969800D01*
X160116400Y-109969800D02*
X159116400Y-109969800D01*
X122066400Y-126619800D02*
X122066400Y-128769800D01*
X131966400Y-116719800D02*
X122066400Y-126619800D01*
X131966400Y-113769800D02*
X131966400Y-116719800D01*
X156716400Y-106019800D02*
X156698800Y-105989200D01*
X131966400Y-113769800D02*
X132016400Y-113669800D01*
%TO.N,/M41*%
X149566400Y-124419800D02*
X149566400Y-125619800D01*
X149716400Y-124269800D02*
X149566400Y-124419800D01*
X149716400Y-116419800D02*
X149716400Y-118569800D01*
X149716400Y-118569800D02*
X149716400Y-124269800D01*
X150016400Y-116119800D02*
X149716400Y-116419800D01*
X159716400Y-122369800D02*
X161266400Y-120819800D01*
X156266400Y-122369800D02*
X159716400Y-122369800D01*
X153966400Y-120069800D02*
X156266400Y-122369800D01*
X153966400Y-119819800D02*
X153966400Y-120069800D01*
X152716400Y-118569800D02*
X153966400Y-119819800D01*
X149716400Y-118569800D02*
X152716400Y-118569800D01*
%TO.N,/M42*%
X108166400Y-92269800D02*
X101666400Y-92269800D01*
X112866400Y-96969800D02*
X108166400Y-92269800D01*
X114566400Y-96969800D02*
X112866400Y-96969800D01*
X116216400Y-98619800D02*
X114566400Y-96969800D01*
X122016400Y-98619800D02*
X116216400Y-98619800D01*
X127616400Y-104219800D02*
X122241400Y-98844800D01*
X122241400Y-98844800D02*
X122016400Y-98619800D01*
X140566400Y-111719800D02*
X139016400Y-110169800D01*
X101666400Y-92269800D02*
X101629200Y-92230600D01*
X156016400Y-108519800D02*
X156666400Y-108519800D01*
X152566400Y-105069800D02*
X156016400Y-108519800D01*
X167416400Y-86619800D02*
X167416400Y-87519800D01*
X163666400Y-82869800D02*
X167416400Y-86619800D01*
X163666400Y-79769800D02*
X163666400Y-82869800D01*
X158116400Y-74219800D02*
X163666400Y-79769800D01*
X158116400Y-72719800D02*
X158116400Y-74219800D01*
X120466400Y-72369800D02*
X120466400Y-71169800D01*
X118516400Y-74319800D02*
X120466400Y-72369800D01*
X118516400Y-82219800D02*
X118516400Y-74319800D01*
X120866400Y-84569800D02*
X118516400Y-82219800D01*
X120866400Y-88419800D02*
X120866400Y-84569800D01*
X156666400Y-108519800D02*
X156698800Y-108529200D01*
X122166400Y-98919800D02*
X122241400Y-98844800D01*
%TO.N,/M43*%
X159266400Y-108519800D02*
X159238800Y-108529200D01*
X147866400Y-108469800D02*
X147834200Y-108427600D01*
X87116400Y-142569800D02*
X87116400Y-143169800D01*
X88816400Y-140869800D02*
X87116400Y-142569800D01*
X104166400Y-140869800D02*
X88816400Y-140869800D01*
X115866400Y-140869800D02*
X112616400Y-140869800D01*
X122866400Y-133869800D02*
X115866400Y-140869800D01*
X122866400Y-127369800D02*
X122866400Y-133869800D01*
X150816400Y-122069800D02*
X150816400Y-125619800D01*
X150216400Y-121469800D02*
X150816400Y-122069800D01*
X150216400Y-119669800D02*
X150216400Y-121469800D01*
X150516400Y-119369800D02*
X150216400Y-119669800D01*
X87116400Y-143169800D02*
X87099400Y-143174800D01*
%TO.N,/M44*%
X156666400Y-110369800D02*
X156666400Y-111019800D01*
X150916400Y-104619800D02*
X156666400Y-110369800D01*
X150916400Y-104319800D02*
X150916400Y-104619800D01*
X161266400Y-79119800D02*
X161266400Y-80519800D01*
X158116400Y-75969800D02*
X161266400Y-79119800D01*
X142666400Y-108319800D02*
X142666400Y-104869800D01*
X145266400Y-110919800D02*
X142666400Y-108319800D01*
X156666400Y-111019800D02*
X156698800Y-111069200D01*
X145266400Y-110919800D02*
X145294200Y-110967600D01*
X85066400Y-143169800D02*
X83616400Y-143169800D01*
X90316400Y-137919800D02*
X85066400Y-143169800D01*
X97166400Y-137919800D02*
X90316400Y-137919800D01*
X98716400Y-136369800D02*
X97166400Y-137919800D01*
X98716400Y-129369800D02*
X98716400Y-136369800D01*
X98316400Y-128969800D02*
X98716400Y-129369800D01*
X98316400Y-128069800D02*
X98316400Y-128969800D01*
X96116400Y-125869800D02*
X98316400Y-128069800D01*
X96116400Y-123619800D02*
X96116400Y-125869800D01*
X96616400Y-123119800D02*
X96116400Y-123619800D01*
X99916400Y-123119800D02*
X96616400Y-123119800D01*
X83616400Y-143169800D02*
X83599400Y-143174800D01*
%TO.N,/M45*%
X103866400Y-105869800D02*
X103866400Y-102669800D01*
X102366400Y-107369800D02*
X103866400Y-105869800D01*
X96916400Y-126019800D02*
X96916400Y-123919800D01*
X99416400Y-128519800D02*
X96916400Y-126019800D01*
X99416400Y-128969800D02*
X99416400Y-128519800D01*
X161616400Y-113419800D02*
X162266400Y-113419800D01*
X159266400Y-111069800D02*
X161616400Y-113419800D01*
X103866400Y-102669800D02*
X103892200Y-102661800D01*
X159266400Y-111069800D02*
X159238800Y-111069200D01*
X155016400Y-110969800D02*
X147866400Y-110969800D01*
X156216400Y-112169800D02*
X155016400Y-110969800D01*
X158066400Y-112169800D02*
X156216400Y-112169800D01*
X159116400Y-111119800D02*
X158066400Y-112169800D01*
X147866400Y-110969800D02*
X147834200Y-110967600D01*
X159116400Y-111119800D02*
X159238800Y-111069200D01*
%TO.N,/M46*%
X90416400Y-88969800D02*
X75966400Y-88969800D01*
X96016400Y-94569800D02*
X90416400Y-88969800D01*
X109816400Y-94569800D02*
X96016400Y-94569800D01*
X112716400Y-97469800D02*
X109816400Y-94569800D01*
X114416400Y-97469800D02*
X112716400Y-97469800D01*
X116066400Y-99119800D02*
X114416400Y-97469800D01*
X121216400Y-99119800D02*
X116066400Y-99119800D01*
X127266400Y-105169800D02*
X121216400Y-99119800D01*
X127266400Y-106719800D02*
X127266400Y-105169800D01*
X136816400Y-110169800D02*
X130716400Y-110169800D01*
X139666400Y-113019800D02*
X138691400Y-112044800D01*
X138691400Y-112044800D02*
X136816400Y-110169800D01*
X75966400Y-88969800D02*
X75926800Y-88920400D01*
X157716400Y-113569800D02*
X156716400Y-113569800D01*
X158816400Y-112469800D02*
X157716400Y-113569800D01*
X159866400Y-112469800D02*
X158816400Y-112469800D01*
X161866400Y-114469800D02*
X159866400Y-112469800D01*
X162466400Y-123069800D02*
X164866400Y-120669800D01*
X124016400Y-129619800D02*
X124016400Y-133019800D01*
X123666400Y-129269800D02*
X124016400Y-129619800D01*
X123666400Y-126219800D02*
X123666400Y-129269800D01*
X136466400Y-113419800D02*
X123666400Y-126219800D01*
X137316400Y-113419800D02*
X136466400Y-113419800D01*
X138691400Y-112044800D02*
X137316400Y-113419800D01*
X156716400Y-113569800D02*
X156698800Y-113609200D01*
%TO.N,/M47*%
X75566400Y-98019800D02*
X75566400Y-99369800D01*
X80116400Y-93469800D02*
X75566400Y-98019800D01*
X164466400Y-96319800D02*
X164466400Y-95869800D01*
X162866400Y-97919800D02*
X164466400Y-96319800D01*
X162866400Y-112919800D02*
X162866400Y-97919800D01*
X163066400Y-113119800D02*
X162866400Y-112919800D01*
X163066400Y-114369800D02*
X163066400Y-113119800D01*
X162166400Y-115269800D02*
X163066400Y-114369800D01*
X161566400Y-115269800D02*
X162166400Y-115269800D01*
X159916400Y-113619800D02*
X161566400Y-115269800D01*
X159266400Y-113619800D02*
X159916400Y-113619800D01*
X75566400Y-99369800D02*
X75520400Y-99385200D01*
X159266400Y-113619800D02*
X159238800Y-113609200D01*
X155016400Y-113519800D02*
X147866400Y-113519800D01*
X156216400Y-114719800D02*
X155016400Y-113519800D01*
X158016400Y-114719800D02*
X156216400Y-114719800D01*
X159116400Y-113619800D02*
X158016400Y-114719800D01*
X147866400Y-113519800D02*
X147834200Y-113507600D01*
X159116400Y-113619800D02*
X159238800Y-113609200D01*
%TO.N,/M48*%
X157666400Y-116119800D02*
X156716400Y-116119800D01*
X158766400Y-115019800D02*
X157666400Y-116119800D01*
X160666400Y-115019800D02*
X158766400Y-115019800D01*
X163266400Y-117619800D02*
X160666400Y-115019800D01*
X130866400Y-140519800D02*
X140666400Y-140519800D01*
X156716400Y-116119800D02*
X156698800Y-116149200D01*
X104466400Y-124569800D02*
X105016400Y-124569800D01*
X100816400Y-128219800D02*
X104466400Y-124569800D01*
X100816400Y-129769800D02*
X100816400Y-128219800D01*
X101016400Y-129969800D02*
X100816400Y-129769800D01*
X101016400Y-133269800D02*
X101016400Y-129969800D01*
X100666400Y-133619800D02*
X101016400Y-133269800D01*
X100666400Y-136269800D02*
X100666400Y-133619800D01*
X107516400Y-143119800D02*
X100666400Y-136269800D01*
X107516400Y-143119800D02*
X107546400Y-143149400D01*
%TO.N,/M49*%
X158266400Y-116169800D02*
X159216400Y-116169800D01*
X157166400Y-117269800D02*
X158266400Y-116169800D01*
X154716400Y-117269800D02*
X157166400Y-117269800D01*
X152766400Y-115319800D02*
X154716400Y-117269800D01*
X148566400Y-115319800D02*
X152766400Y-115319800D01*
X147866400Y-116019800D02*
X148566400Y-115319800D01*
X159216400Y-116169800D02*
X159238800Y-116149200D01*
X147866400Y-116019800D02*
X147834200Y-116047600D01*
X104716400Y-143169800D02*
X104066400Y-143169800D01*
X108316400Y-146769800D02*
X104716400Y-143169800D01*
X125516400Y-146769800D02*
X108316400Y-146769800D01*
X127866400Y-144419800D02*
X125516400Y-146769800D01*
X127866400Y-142769800D02*
X127866400Y-144419800D01*
X138616400Y-141469800D02*
X132266400Y-141469800D01*
X162816400Y-118719800D02*
X163266400Y-118719800D01*
X160216400Y-116119800D02*
X162816400Y-118719800D01*
X159366400Y-116119800D02*
X160216400Y-116119800D01*
X104066400Y-143169800D02*
X104046400Y-143149400D01*
X159366400Y-116119800D02*
X159238800Y-116149200D01*
%TO.N,/M50*%
X157716400Y-118719800D02*
X156716400Y-118719800D01*
X159016400Y-120019800D02*
X157716400Y-118719800D01*
X163716400Y-120019800D02*
X159016400Y-120019800D01*
X174716400Y-109019800D02*
X163716400Y-120019800D01*
X175016400Y-85969800D02*
X175016400Y-89619800D01*
X169316400Y-80269800D02*
X175016400Y-85969800D01*
X117216400Y-91719800D02*
X117216400Y-74319800D01*
X114066400Y-94869800D02*
X117216400Y-91719800D01*
X112816400Y-99319800D02*
X112816400Y-99169800D01*
X129416400Y-115919800D02*
X112816400Y-99319800D01*
X129416400Y-117519800D02*
X129416400Y-115919800D01*
X156716400Y-118719800D02*
X156698800Y-118689200D01*
%TO.N,/M51*%
X159266400Y-118719800D02*
X159238800Y-118689200D01*
X147866400Y-119319800D02*
X147866400Y-118619800D01*
X149116400Y-120569800D02*
X147866400Y-119319800D01*
X149116400Y-124219800D02*
X149116400Y-120569800D01*
X148366400Y-124969800D02*
X149116400Y-124219800D01*
X144766400Y-124969800D02*
X148366400Y-124969800D01*
X142666400Y-122869800D02*
X144766400Y-124969800D01*
X142666400Y-121019800D02*
X142666400Y-122869800D01*
X135216400Y-115769800D02*
X138566400Y-119119800D01*
X126016400Y-104569800D02*
X126016400Y-106569800D01*
X121066400Y-99619800D02*
X126016400Y-104569800D01*
X115466400Y-99619800D02*
X121066400Y-99619800D01*
X114866400Y-99019800D02*
X115466400Y-99619800D01*
X114866400Y-82069800D02*
X114866400Y-84269800D01*
X148316400Y-63969800D02*
X142316400Y-63969800D01*
X149816400Y-65469800D02*
X148316400Y-63969800D01*
X147866400Y-118619800D02*
X147834200Y-118587600D01*
%TO.N,/M52*%
X142666400Y-118519800D02*
X142666400Y-117269800D01*
X145266400Y-121119800D02*
X142666400Y-118519800D01*
X145266400Y-121119800D02*
X145294200Y-121127600D01*
X156466400Y-121219800D02*
X156666400Y-121219800D01*
X156666400Y-121219800D02*
X156698800Y-121229200D01*
%TO.N,/M53*%
X75816400Y-120469800D02*
X75366400Y-120469800D01*
X77916400Y-122569800D02*
X75816400Y-120469800D01*
X86866400Y-122569800D02*
X77916400Y-122569800D01*
X98066400Y-126519800D02*
X98066400Y-126069800D01*
X100216400Y-128669800D02*
X98066400Y-126519800D01*
X100216400Y-130269800D02*
X100216400Y-128669800D01*
X156316400Y-125619800D02*
X156316400Y-127319800D01*
X151866400Y-121169800D02*
X156316400Y-125619800D01*
X151016400Y-121169800D02*
X151866400Y-121169800D01*
X75366400Y-120469800D02*
X75342600Y-120441800D01*
X158266400Y-121219800D02*
X159216400Y-121219800D01*
X156866400Y-119819800D02*
X158266400Y-121219800D01*
X156166400Y-119819800D02*
X156866400Y-119819800D01*
X153166400Y-116819800D02*
X156166400Y-119819800D01*
X159216400Y-121219800D02*
X159238800Y-121229200D01*
%TO.N,Net-(R28-Pad1)*%
X79916400Y-92169800D02*
X78516400Y-92169800D01*
X83666400Y-95919800D02*
X79916400Y-92169800D01*
X78516400Y-92169800D02*
X78506200Y-92124600D01*
X83666400Y-95919800D02*
X83668400Y-95945200D01*
%TO.N,Net-(R29-Pad1)*%
X83216400Y-107019800D02*
X83666400Y-107019800D01*
X79066400Y-102869800D02*
X83216400Y-107019800D01*
X78766400Y-102869800D02*
X79066400Y-102869800D01*
X83666400Y-107019800D02*
X83679000Y-107045200D01*
X78766400Y-102869800D02*
X78756400Y-102846400D01*
%TO.N,Net-(R31-Pad1)*%
X92516400Y-92269800D02*
X91516400Y-92269800D01*
X96466400Y-96219800D02*
X92516400Y-92269800D01*
X91516400Y-92269800D02*
X91469200Y-92230600D01*
X96466400Y-96219800D02*
X96504600Y-96257200D01*
%TO.N,/MEL1*%
X100166400Y-86519800D02*
X100166400Y-90569800D01*
%TO.N,/MEL2*%
X94816400Y-115369800D02*
X94816400Y-115819800D01*
X96466400Y-113719800D02*
X94816400Y-115369800D01*
X96466400Y-108969800D02*
X96466400Y-113719800D01*
X95366400Y-82369800D02*
X95366400Y-92819800D01*
X103016400Y-68719800D02*
X100566400Y-68719800D01*
X104716400Y-67019800D02*
X103016400Y-68719800D01*
X94816400Y-115819800D02*
X94776800Y-115844800D01*
X104716400Y-67019800D02*
X104731200Y-66974800D01*
%TO.N,/MEL3*%
X116716400Y-83519800D02*
X114066400Y-86169800D01*
X116716400Y-74969800D02*
X116716400Y-83519800D01*
X113916400Y-72169800D02*
X116716400Y-74969800D01*
%TO.N,/LIGHT3*%
X67916400Y-119919800D02*
X67916400Y-114019800D01*
X71266400Y-123269800D02*
X67916400Y-119919800D01*
X71266400Y-137569800D02*
X71266400Y-123269800D01*
X76966400Y-143269800D02*
X71266400Y-137569800D01*
X76966400Y-143819800D02*
X76966400Y-143269800D01*
X79266400Y-146119800D02*
X76966400Y-143819800D01*
X106016400Y-146119800D02*
X79266400Y-146119800D01*
X106116400Y-146019800D02*
X106016400Y-146119800D01*
X67916400Y-114019800D02*
X67900400Y-114015600D01*
%TO.N,/LIGHT4*%
X99816400Y-145319800D02*
X94866400Y-145319800D01*
X103416400Y-141719800D02*
X99816400Y-145319800D01*
X104666400Y-141719800D02*
X103416400Y-141719800D01*
X106116400Y-143169800D02*
X104666400Y-141719800D01*
X106116400Y-143919800D02*
X106116400Y-143169800D01*
X108466400Y-146269800D02*
X106116400Y-143919800D01*
X123066400Y-146269800D02*
X108466400Y-146269800D01*
X123566400Y-145769800D02*
X123066400Y-146269800D01*
X123566400Y-144669800D02*
X123566400Y-145769800D01*
%TO.N,/LAS_A1*%
X81166400Y-109719800D02*
X81166400Y-107069800D01*
X88166400Y-116719800D02*
X81166400Y-109719800D01*
X88166400Y-123069800D02*
X88166400Y-116719800D01*
X78416400Y-132819800D02*
X88166400Y-123069800D01*
X78416400Y-143219800D02*
X78416400Y-132819800D01*
X81166400Y-107069800D02*
X81139000Y-107045200D01*
X78416400Y-143219800D02*
X78410000Y-143251000D01*
%TO.N,/MAG_B*%
X204116400Y-75319800D02*
X207416400Y-75319800D01*
X195616400Y-66819800D02*
X204116400Y-75319800D01*
X207416400Y-75319800D02*
X207422600Y-75331400D01*
X195616400Y-66819800D02*
X195609800Y-66771600D01*
%TO.N,/+3.3V*%
X84916400Y-135119800D02*
X82416400Y-135119800D01*
X82416400Y-135119800D02*
X82378400Y-135123000D01*
X84916400Y-135119800D02*
X84918400Y-135123000D01*
X86866400Y-133119800D02*
X86866400Y-128769800D01*
X84966400Y-135019800D02*
X86866400Y-133119800D01*
X86866400Y-128769800D02*
X86874200Y-128747600D01*
X84966400Y-135019800D02*
X84918400Y-135123000D01*
%TO.N,Net-(R1-Pad1)*%
X94866400Y-102669800D02*
X93766400Y-102669800D01*
X98466400Y-106269800D02*
X94866400Y-102669800D01*
X93766400Y-102669800D02*
X93732200Y-102661800D01*
X98466400Y-106269800D02*
X98507400Y-106319400D01*
%TO.N,Net-(R2-Pad1)*%
X70316400Y-92919800D02*
X70766400Y-92919800D01*
X66366400Y-88969800D02*
X70316400Y-92919800D01*
X65816400Y-88969800D02*
X66366400Y-88969800D01*
X70766400Y-92919800D02*
X70796000Y-92933600D01*
X65816400Y-88969800D02*
X65766800Y-88920400D01*
%TO.N,Net-(R3-Pad1)*%
X66466400Y-99419800D02*
X65366400Y-99419800D01*
X70466400Y-103419800D02*
X66466400Y-99419800D01*
X65366400Y-99419800D02*
X65360400Y-99385200D01*
X70466400Y-103419800D02*
X70491200Y-103423800D01*
%TO.N,/LAS_B1*%
X93766400Y-106269800D02*
X95966400Y-106269800D01*
X89316400Y-101819800D02*
X93766400Y-106269800D01*
X78366400Y-101819800D02*
X89316400Y-101819800D01*
X77716400Y-102469800D02*
X78366400Y-101819800D01*
X77716400Y-106919800D02*
X77716400Y-102469800D01*
X87666400Y-116869800D02*
X77716400Y-106919800D01*
X87666400Y-122869800D02*
X87666400Y-116869800D01*
X83316400Y-127219800D02*
X87666400Y-122869800D01*
X82916400Y-127219800D02*
X83316400Y-127219800D01*
X95966400Y-106269800D02*
X95967400Y-106319400D01*
%TO.N,/LAS_B2*%
X68266400Y-95169800D02*
X68266400Y-92969800D01*
X71916400Y-98819800D02*
X68266400Y-95169800D01*
X71916400Y-123069800D02*
X71916400Y-98819800D01*
X71766400Y-123219800D02*
X71916400Y-123069800D01*
X71766400Y-125369800D02*
X71766400Y-123219800D01*
X78266400Y-131869800D02*
X71766400Y-125369800D01*
X94316400Y-141669800D02*
X89116400Y-141669800D01*
X95766400Y-143119800D02*
X94316400Y-141669800D01*
X68266400Y-92969800D02*
X68256000Y-92933600D01*
X95766400Y-143119800D02*
X95788800Y-143124000D01*
%TO.N,/MAG_A*%
X184216400Y-72969800D02*
X184216400Y-75069800D01*
X178266400Y-67019800D02*
X184216400Y-72969800D01*
X184216400Y-75069800D02*
X184263400Y-75108200D01*
X178266400Y-67019800D02*
X178261600Y-67000200D01*
%TO.N,Net-(R6-Pad1)*%
X66516400Y-110069800D02*
X65466400Y-110069800D01*
X70416400Y-113969800D02*
X66516400Y-110069800D01*
X65466400Y-110069800D02*
X65436600Y-110053200D01*
X70416400Y-113969800D02*
X70440400Y-114015600D01*
%TO.N,Net-(R7-Pad1)*%
X66416400Y-120469800D02*
X65216400Y-120469800D01*
X70216400Y-124269800D02*
X66416400Y-120469800D01*
X65216400Y-120469800D02*
X65182600Y-120441800D01*
X70216400Y-124269800D02*
X70237200Y-124302600D01*
%TO.N,/LIGHT1*%
X121916400Y-96769800D02*
X122766400Y-96769800D01*
X120066400Y-94919800D02*
X121916400Y-96769800D01*
X115916400Y-81219800D02*
X115916400Y-83219800D01*
X116116400Y-81019800D02*
X115916400Y-81219800D01*
X116116400Y-77169800D02*
X116116400Y-81019800D01*
X115916400Y-76969800D02*
X116116400Y-77169800D01*
X123666400Y-68669800D02*
X119466400Y-68669800D01*
X124566400Y-69569800D02*
X123666400Y-68669800D01*
X127116400Y-69569800D02*
X124566400Y-69569800D01*
X127966400Y-68719800D02*
X127116400Y-69569800D01*
%TO.N,/LIGHT2*%
X81116400Y-98419800D02*
X81116400Y-95969800D01*
X77116400Y-102419800D02*
X81116400Y-98419800D01*
X77116400Y-110269800D02*
X77116400Y-102419800D01*
X136516400Y-127469800D02*
X130966400Y-121919800D01*
X143316400Y-127469800D02*
X136516400Y-127469800D01*
X144966400Y-129119800D02*
X143316400Y-127469800D01*
X144966400Y-131819800D02*
X144966400Y-129119800D01*
X151316400Y-138169800D02*
X144966400Y-131819800D01*
X81116400Y-95969800D02*
X81128400Y-95945200D01*
%TO.N,Net-(D1-PadC)*%
X184716400Y-91119800D02*
X187716400Y-91119800D01*
X183716400Y-90119800D02*
X184716400Y-91119800D01*
X187716400Y-91119800D02*
X187763000Y-91155600D01*
X183716400Y-90119800D02*
X183699000Y-90088800D01*
%TD*%
M02*
