%TF.GenerationSoftware,KiCad,Pcbnew,(7.0.0)*%
%TF.CreationDate,2023-06-30T12:19:52+08:00*%
%TF.ProjectId,SparqControlv3,53706172-7143-46f6-9e74-726f6c76332e,rev?*%
%TF.SameCoordinates,Original*%
%TF.FileFunction,Soldermask,Bot*%
%TF.FilePolarity,Negative*%
%FSLAX46Y46*%
G04 Gerber Fmt 4.6, Leading zero omitted, Abs format (unit mm)*
G04 Created by KiCad (PCBNEW (7.0.0)) date 2023-06-30 12:19:52*
%MOMM*%
%LPD*%
G01*
G04 APERTURE LIST*
%ADD10C,1.727200*%
%ADD11O,1.727200X3.251200*%
%ADD12C,1.524000*%
%ADD13O,2.844800X1.524000*%
%ADD14O,1.524000X2.844800*%
%ADD15C,2.387600*%
%ADD16O,3.251200X1.727200*%
%ADD17C,2.082800*%
%ADD18C,3.300000*%
%ADD19O,4.394200X2.298700*%
%ADD20C,1.879600*%
G04 APERTURE END LIST*
D10*
%TO.C,CN4*%
X156698800Y-80589200D03*
X159238800Y-80589200D03*
X156698800Y-83129200D03*
X156698800Y-85669200D03*
X156698800Y-88209200D03*
X159238800Y-83129200D03*
X159238800Y-85669200D03*
X159238800Y-88209200D03*
X156698800Y-90749200D03*
X159238800Y-90749200D03*
X156698800Y-93289200D03*
X156698800Y-95829200D03*
X156698800Y-98369200D03*
X156698800Y-100909200D03*
X156698800Y-103449200D03*
X156698800Y-105989200D03*
X159238800Y-93289200D03*
X159238800Y-95829200D03*
X159238800Y-98369200D03*
X159238800Y-100909200D03*
X159238800Y-103449200D03*
X159238800Y-105989200D03*
X156698800Y-108529200D03*
X159238800Y-108529200D03*
X156698800Y-111069200D03*
X156698800Y-113609200D03*
X156698800Y-116149200D03*
X156698800Y-118689200D03*
X156698800Y-121229200D03*
X156698800Y-123769200D03*
X159238800Y-111069200D03*
X159238800Y-113609200D03*
X159238800Y-116149200D03*
X159238800Y-118689200D03*
X159238800Y-121229200D03*
X159238800Y-123769200D03*
%TD*%
D11*
%TO.C,CN7*%
X97618399Y-135122999D03*
X95078399Y-135122999D03*
X92538399Y-135122999D03*
X89998399Y-135122999D03*
X87458399Y-135122999D03*
X84918399Y-135122999D03*
X82378399Y-135122999D03*
X79838399Y-135122999D03*
%TD*%
D12*
%TO.C,R4*%
X199802600Y-75331400D03*
X207422600Y-75331400D03*
%TD*%
%TO.C,R5*%
X189134600Y-75331400D03*
X196754600Y-75331400D03*
%TD*%
%TO.C,R6*%
X75596600Y-110053200D03*
X65436600Y-110053200D03*
%TD*%
D13*
%TO.C,T14*%
X109933799Y-112985199D03*
X109933799Y-115525199D03*
X109933799Y-110445199D03*
%TD*%
%TO.C,T15*%
X94776799Y-113304799D03*
X94776799Y-115844799D03*
X94776799Y-110764799D03*
%TD*%
D14*
%TO.C,T16*%
X107839399Y-99665199D03*
X105299399Y-99665199D03*
X110379399Y-99665199D03*
%TD*%
%TO.C,T17*%
X127430799Y-99411199D03*
X124890799Y-99411199D03*
X129970799Y-99411199D03*
%TD*%
D12*
%TO.C,R67*%
X105860800Y-108201800D03*
X105860800Y-118361800D03*
%TD*%
%TO.C,R68*%
X90820800Y-108201800D03*
X90820800Y-118361800D03*
%TD*%
%TO.C,R69*%
X112928600Y-95589400D03*
X102768600Y-95589400D03*
%TD*%
%TO.C,R70*%
X132258000Y-95519400D03*
X122098000Y-95519400D03*
%TD*%
%TO.C,R28*%
X88666200Y-92124600D03*
X78506200Y-92124600D03*
%TD*%
%TO.C,R29*%
X88916400Y-102846400D03*
X78756400Y-102846400D03*
%TD*%
%TO.C,R30*%
X86440000Y-117091000D03*
X76280000Y-117091000D03*
%TD*%
%TO.C,R31*%
X101629200Y-92230600D03*
X91469200Y-92230600D03*
%TD*%
%TO.C,R39*%
X176643400Y-75108200D03*
X184263400Y-75108200D03*
%TD*%
%TO.C,R40*%
X165686400Y-75074200D03*
X173306400Y-75074200D03*
%TD*%
D15*
%TO.C,LIGHT_12*%
X140165200Y-143149400D03*
X143665200Y-143149400D03*
%TD*%
%TO.C,LIGHT_34*%
X148648800Y-143149400D03*
X152148800Y-143149400D03*
%TD*%
D16*
%TO.C,MP3*%
X223780199Y-78023799D03*
X223780199Y-80563799D03*
X223780199Y-83103799D03*
X223780199Y-85643799D03*
%TD*%
D11*
%TO.C,ACP220*%
X213162999Y-126004399D03*
X210622999Y-126004399D03*
X208082999Y-126004399D03*
X205542999Y-126004399D03*
X203002999Y-126004399D03*
X200462999Y-126004399D03*
X197922999Y-126004399D03*
%TD*%
D16*
%TO.C,HC12*%
X187762999Y-80995599D03*
X187762999Y-83535599D03*
X187762999Y-86075599D03*
X187762999Y-88615599D03*
X187762999Y-91155599D03*
%TD*%
D17*
%TO.C,U2*%
X127514200Y-128747600D03*
X130054200Y-128747600D03*
X132594200Y-128747600D03*
X135134200Y-128747600D03*
X137674200Y-128747600D03*
X140214200Y-128747600D03*
X142754200Y-128747600D03*
X124974200Y-128747600D03*
X122434200Y-80487600D03*
X124974200Y-80487600D03*
X127514200Y-80487600D03*
X130054200Y-80487600D03*
X132594200Y-80487600D03*
X135134200Y-80487600D03*
X137674200Y-80487600D03*
X119894200Y-80487600D03*
X104654200Y-128747600D03*
X107194200Y-128747600D03*
X109734200Y-128747600D03*
X112274200Y-128747600D03*
X114814200Y-128747600D03*
X117354200Y-128747600D03*
X119894200Y-128747600D03*
X102114200Y-128747600D03*
X99574200Y-80487600D03*
X102114200Y-80487600D03*
X104654200Y-80487600D03*
X107194200Y-80487600D03*
X109734200Y-80487600D03*
X112274200Y-80487600D03*
X114814200Y-80487600D03*
X97034200Y-80487600D03*
X77730200Y-80487600D03*
X80270200Y-80487600D03*
X82810200Y-80487600D03*
X85350200Y-80487600D03*
X87890200Y-80487600D03*
X90430200Y-80487600D03*
X92970200Y-80487600D03*
X75190200Y-80487600D03*
X147834200Y-100807600D03*
X145294200Y-100807600D03*
X147834200Y-98267600D03*
X145294200Y-98267600D03*
X147834200Y-95727600D03*
X145294200Y-95727600D03*
X147834200Y-93187600D03*
X145294200Y-93187600D03*
X147834200Y-90647600D03*
X145294200Y-90647600D03*
X147834200Y-88107600D03*
X145294200Y-88107600D03*
X147834200Y-85567600D03*
X145294200Y-85567600D03*
X147834200Y-83027600D03*
X145294200Y-83027600D03*
X147834200Y-121127600D03*
X145294200Y-121127600D03*
X147834200Y-118587600D03*
X145294200Y-118587600D03*
X147834200Y-116047600D03*
X145294200Y-116047600D03*
X147834200Y-113507600D03*
X145294200Y-113507600D03*
X147834200Y-110967600D03*
X145294200Y-110967600D03*
X147834200Y-108427600D03*
X145294200Y-108427600D03*
X147834200Y-105887600D03*
X145294200Y-105887600D03*
X147834200Y-103347600D03*
X145294200Y-103347600D03*
X145294200Y-123667600D03*
X147834200Y-123667600D03*
X145294200Y-80487600D03*
X147834200Y-80487600D03*
X84334200Y-128747600D03*
X86874200Y-128747600D03*
X89414200Y-128747600D03*
X91954200Y-128747600D03*
X94494200Y-128747600D03*
X97034200Y-128747600D03*
D18*
X66554200Y-80487600D03*
X65284200Y-128747600D03*
X117354200Y-95727600D03*
X117354200Y-123667600D03*
X141484200Y-80487600D03*
X147834200Y-128747600D03*
%TD*%
D14*
%TO.C,T1*%
X86208399Y-95945199D03*
X81128399Y-95945199D03*
X83668399Y-95945199D03*
%TD*%
%TO.C,T2*%
X86218999Y-107045199D03*
X81138999Y-107045199D03*
X83678999Y-107045199D03*
%TD*%
%TO.C,T3*%
X83428999Y-120904399D03*
X78348999Y-120904399D03*
X80888999Y-120904399D03*
%TD*%
%TO.C,T4*%
X99044599Y-96257199D03*
X93964599Y-96257199D03*
X96504599Y-96257199D03*
%TD*%
D11*
%TO.C,CN1*%
X75063199Y-75305999D03*
X77603199Y-75305999D03*
X80143199Y-75305999D03*
X82683199Y-75305999D03*
X85223199Y-75305999D03*
X87763199Y-75305999D03*
X90303199Y-75305999D03*
X92843199Y-75305999D03*
%TD*%
%TO.C,CN2*%
X96957999Y-75382199D03*
X99497999Y-75382199D03*
X102037999Y-75382199D03*
X104577999Y-75382199D03*
X107117999Y-75382199D03*
X109657999Y-75382199D03*
X112197999Y-75382199D03*
X114737999Y-75382199D03*
%TD*%
%TO.C,CN3*%
X119614799Y-75534599D03*
X122154799Y-75534599D03*
X124694799Y-75534599D03*
X127234799Y-75534599D03*
X129774799Y-75534599D03*
X132314799Y-75534599D03*
X134854799Y-75534599D03*
X137394799Y-75534599D03*
%TD*%
%TO.C,CN5*%
X124796399Y-134995999D03*
X127336399Y-134995999D03*
X129876399Y-134995999D03*
X132416399Y-134995999D03*
X134956399Y-134995999D03*
X137496399Y-134995999D03*
X140036399Y-134995999D03*
X142576399Y-134995999D03*
%TD*%
%TO.C,CN6*%
X101783999Y-134818199D03*
X104323999Y-134818199D03*
X106863999Y-134818199D03*
X109403999Y-134818199D03*
X111943999Y-134818199D03*
X114483999Y-134818199D03*
X117023999Y-134818199D03*
X119563999Y-134818199D03*
%TD*%
D14*
%TO.C,T5*%
X101047399Y-106319399D03*
X95967399Y-106319399D03*
X98507399Y-106319399D03*
%TD*%
%TO.C,T6*%
X73335999Y-92933599D03*
X68255999Y-92933599D03*
X70795999Y-92933599D03*
%TD*%
%TO.C,T7*%
X73031199Y-103423799D03*
X67951199Y-103423799D03*
X70491199Y-103423799D03*
%TD*%
D12*
%TO.C,R1*%
X93732200Y-102661800D03*
X103892200Y-102661800D03*
%TD*%
%TO.C,R2*%
X65766800Y-88920400D03*
X75926800Y-88920400D03*
%TD*%
%TO.C,R3*%
X65360400Y-99385200D03*
X75520400Y-99385200D03*
%TD*%
D15*
%TO.C,LAS_OUT_A1*%
X78410000Y-143251000D03*
X74910000Y-143251000D03*
X71410000Y-143251000D03*
%TD*%
%TO.C,LAS_IN_A1*%
X87099400Y-143174800D03*
X83599400Y-143174800D03*
%TD*%
%TO.C,LAS_OUT_B1*%
X99288800Y-143124000D03*
X95788800Y-143124000D03*
X92288800Y-143124000D03*
%TD*%
%TO.C,LAS_IN_B1*%
X107546400Y-143149400D03*
X104046400Y-143149400D03*
%TD*%
%TO.C,MAG_A_IN1*%
X174761600Y-67000200D03*
X178261600Y-67000200D03*
%TD*%
%TO.C,MAG_A_SEL1*%
X183346800Y-66949400D03*
X186846800Y-66949400D03*
%TD*%
%TO.C,MAG_B_IN1*%
X192109800Y-66771600D03*
X195609800Y-66771600D03*
%TD*%
%TO.C,MAG_B_SEL1*%
X200771200Y-66847800D03*
X204271200Y-66847800D03*
%TD*%
%TO.C,ADD_BAR_A1*%
X172621200Y-142971600D03*
X169121200Y-142971600D03*
%TD*%
%TO.C,ADD_BAR_B1*%
X181409600Y-142870000D03*
X177909600Y-142870000D03*
%TD*%
%TO.C,BUTTON1*%
X162029400Y-143098600D03*
X158529400Y-143098600D03*
%TD*%
%TO.C,RFID1*%
X115681200Y-66924000D03*
X119181200Y-66924000D03*
%TD*%
%TO.C,RFID2*%
X124317200Y-66974800D03*
X127817200Y-66974800D03*
%TD*%
%TO.C,BUMPER1*%
X164550800Y-67127200D03*
X168050800Y-67127200D03*
%TD*%
%TO.C,MD_A1*%
X143443400Y-66949400D03*
X146943400Y-66949400D03*
%TD*%
%TO.C,MD_B1*%
X134858200Y-66949400D03*
X138358200Y-66949400D03*
%TD*%
D14*
%TO.C,T8*%
X72980399Y-114015599D03*
X67900399Y-114015599D03*
X70440399Y-114015599D03*
%TD*%
%TO.C,T9*%
X72777199Y-124302599D03*
X67697199Y-124302599D03*
X70237199Y-124302599D03*
%TD*%
D12*
%TO.C,R7*%
X65182600Y-120441800D03*
X75342600Y-120441800D03*
%TD*%
D15*
%TO.C,TONE1*%
X101231200Y-66974800D03*
X104731200Y-66974800D03*
X108231200Y-66974800D03*
%TD*%
%TO.C,HOOK_A1*%
X73161600Y-66822400D03*
X76661600Y-66822400D03*
%TD*%
%TO.C,HOOK_B1*%
X81899200Y-66720800D03*
X85399200Y-66720800D03*
%TD*%
%TO.C,HOOK_C1*%
X90687600Y-66822400D03*
X94187600Y-66822400D03*
%TD*%
%TO.C,PD_INPUT1*%
X154187600Y-67076400D03*
X157687600Y-67076400D03*
%TD*%
%TO.C,AIO_A1*%
X120980400Y-143174800D03*
X117480400Y-143174800D03*
X113980400Y-143174800D03*
%TD*%
%TO.C,AIO_B1*%
X133096200Y-143098600D03*
X129596200Y-143098600D03*
X126096200Y-143098600D03*
%TD*%
D19*
%TO.C,X1*%
X229063399Y-124632799D03*
X229063399Y-132252799D03*
%TD*%
D16*
%TO.C,BTOOTH1*%
X224008799Y-113151999D03*
X224008799Y-110611999D03*
X224008799Y-108071999D03*
X224008799Y-105531999D03*
X224008799Y-102991999D03*
X224008799Y-100451999D03*
%TD*%
D20*
%TO.C,D1*%
X173539000Y-90088800D03*
X183699000Y-90088800D03*
%TD*%
M02*
