M48
; DRILL file {KiCad (7.0.0)} date Fri Jun 30 12:19:48 2023
; FORMAT={-:-/ absolute / metric / decimal}
; #@! TF.CreationDate,2023-06-30T12:19:48+08:00
; #@! TF.GenerationSoftware,Kicad,Pcbnew,(7.0.0)
; #@! TF.FileFunction,Plated,1,2,PTH
FMAT,2
METRIC
; #@! TA.AperFunction,Plated,PTH,ViaDrill
T1C0.400
; #@! TA.AperFunction,Plated,PTH,ViaDrill
T2C0.457
; #@! TA.AperFunction,Plated,PTH,ComponentDrill
T3C0.813
; #@! TA.AperFunction,Plated,PTH,ComponentDrill
T4C1.000
; #@! TA.AperFunction,Plated,PTH,ComponentDrill
T5C1.016
; #@! TA.AperFunction,Plated,PTH,ComponentDrill
T6C1.118
; #@! TA.AperFunction,Plated,PTH,ComponentDrill
T7C1.397
%
G90
G05
T1
X66.4Y-101.8
X66.866Y-118.87
X69.0Y-111.0
X72.8Y-121.0
X74.0Y-129.2
X74.2Y-126.6
X74.4Y-94.6
X77.0Y-141.4
X79.4Y-141.4
X89.0Y-119.8
X95.0Y-98.8
X95.0Y-101.8
X100.2Y-98.8
X102.927Y-105.782
X106.462Y-124.643
X109.062Y-124.643
X110.67Y-126.796
X112.004Y-124.604
X113.83Y-101.57
X114.6Y-116.2
X115.2Y-120.0
X117.6Y-111.2
X118.4Y-117.0
X119.8Y-115.4
X120.0Y-109.0
X120.54Y-126.803
X122.6Y-112.8
X122.862Y-108.338
X126.504Y-120.393
X128.0Y-116.2
X128.6Y-110.2
X130.52Y-120.393
X134.662Y-126.643
X134.8Y-99.6
X135.04Y-105.166
X136.493Y-105.2
X137.4Y-126.643
X141.066Y-75.147
X143.425Y-103.419
X147.51Y-78.09
X148.704Y-131.393
X149.6Y-77.546
X149.6Y-98.743
X151.2Y-91.6
X151.6Y-77.046
X151.6Y-77.046
X152.385Y-129.916
X152.84Y-121.0
X153.432Y-128.832
X153.493Y-98.6
X154.2Y-100.4
X154.8Y-122.0
X155.0Y-116.2
X155.326Y-110.057
X155.6Y-69.8
X156.59Y-71.8
X160.262Y-70.738
X161.193Y-94.682
X161.693Y-96.4
X162.462Y-130.996
X163.6Y-105.8
X164.4Y-73.4
X165.2Y-99.0
X165.8Y-135.0
X167.6Y-99.4
X167.6Y-123.6
X168.198Y-83.546
X168.316Y-94.543
X168.326Y-109.0
X168.462Y-72.138
X168.8Y-116.0
X173.2Y-134.4
X173.526Y-79.2
X173.8Y-80.2
X174.8Y-81.6
X175.98Y-76.62
X176.427Y-77.514
X177.6Y-76.62
X178.185Y-135.015
X178.29Y-77.42
X178.29Y-81.6
X179.743Y-81.6
X182.71Y-79.29
X184.566Y-77.42
X187.4Y-129.0
X187.8Y-109.0
X187.8Y-120.6
X193.8Y-126.62
T2
X71.716Y-97.22
X72.516Y-95.42
X77.116Y-110.27
X78.266Y-131.87
X80.116Y-93.47
X82.916Y-127.22
X86.866Y-122.57
X89.116Y-141.67
X91.816Y-72.17
X92.716Y-70.17
X94.316Y-75.57
X94.616Y-71.42
X94.866Y-145.32
X94.966Y-69.97
X95.316Y-120.77
X95.366Y-82.37
X95.366Y-92.82
X96.466Y-108.97
X96.816Y-119.97
X96.916Y-123.92
X98.066Y-126.07
X99.416Y-128.97
X99.916Y-123.12
X100.166Y-86.52
X100.166Y-90.57
X100.216Y-130.27
X100.566Y-68.72
X100.966Y-88.97
X102.366Y-107.37
X104.166Y-140.87
X105.016Y-124.57
X106.116Y-146.02
X106.466Y-66.72
X112.416Y-100.22
X112.516Y-70.12
X112.616Y-140.87
X112.816Y-99.17
X113.916Y-72.17
X114.066Y-86.17
X114.066Y-94.87
X114.866Y-82.07
X114.866Y-84.27
X114.866Y-99.02
X115.666Y-89.87
X115.666Y-91.47
X115.816Y-71.37
X115.916Y-76.97
X115.916Y-83.22
X116.416Y-86.97
X117.116Y-92.92
X117.216Y-74.32
X117.416Y-66.62
X117.916Y-92.12
X118.316Y-86.97
X118.966Y-71.37
X119.466Y-68.67
X120.066Y-94.92
X120.466Y-71.17
X120.866Y-88.42
X121.266Y-133.82
X122.066Y-128.77
X122.166Y-98.92
X122.766Y-96.77
X122.866Y-127.37
X123.566Y-98.67
X123.566Y-144.67
X123.766Y-69.87
X123.916Y-78.37
X124.016Y-133.02
X124.366Y-111.97
X124.866Y-68.77
X125.216Y-104.87
X125.566Y-64.77
X126.016Y-106.57
X126.316Y-63.97
X127.266Y-106.72
X127.416Y-70.37
X127.616Y-104.22
X127.616Y-140.87
X127.866Y-142.77
X127.966Y-68.72
X129.266Y-101.22
X129.266Y-139.17
X129.416Y-117.52
X129.516Y-65.52
X129.766Y-140.17
X130.716Y-110.17
X130.716Y-138.37
X130.866Y-140.52
X130.966Y-121.92
X131.266Y-91.27
X131.416Y-64.62
X131.616Y-92.37
X131.816Y-67.82
X132.016Y-113.67
X132.266Y-141.47
X132.866Y-68.27
X133.566Y-95.42
X133.716Y-110.97
X133.716Y-139.17
X133.866Y-70.37
X134.766Y-64.47
X134.966Y-93.97
X135.016Y-138.27
X135.216Y-115.77
X135.766Y-98.27
X135.966Y-78.37
X136.566Y-66.27
X137.366Y-111.87
X138.216Y-78.37
X138.566Y-119.12
X138.616Y-141.47
X139.016Y-110.17
X139.666Y-113.02
X140.216Y-92.37
X140.266Y-76.32
X140.466Y-121.77
X140.566Y-94.47
X140.566Y-111.72
X140.666Y-138.17
X140.666Y-140.52
X141.366Y-92.37
X141.666Y-66.67
X142.316Y-63.97
X142.616Y-86.42
X142.666Y-104.87
X142.666Y-117.27
X142.666Y-121.02
X142.666Y-123.97
X143.416Y-82.52
X144.766Y-138.17
X145.466Y-139.67
X148.216Y-137.92
X149.566Y-125.62
X149.816Y-65.47
X149.866Y-140.72
X150.016Y-116.12
X150.516Y-119.37
X150.816Y-125.62
X150.916Y-104.32
X150.966Y-100.27
X151.016Y-121.17
X151.316Y-138.17
X151.966Y-65.62
X152.566Y-105.07
X153.166Y-116.82
X153.266Y-79.72
X153.566Y-102.57
X156.316Y-127.32
X157.466Y-132.92
X157.816Y-97.42
X158.116Y-72.72
X158.116Y-75.97
X160.116Y-109.97
X160.166Y-104.52
X161.216Y-72.72
X161.266Y-80.52
X161.266Y-120.82
X161.866Y-114.47
X162.066Y-79.72
X162.266Y-113.42
X162.466Y-123.07
X162.866Y-92.17
X163.116Y-85.47
X163.266Y-117.62
X163.266Y-118.72
X163.366Y-90.57
X163.666Y-98.22
X163.766Y-89.52
X164.066Y-94.47
X164.066Y-146.42
X164.466Y-81.02
X164.466Y-95.87
X164.766Y-91.37
X164.866Y-120.67
X164.916Y-87.27
X165.966Y-120.67
X166.066Y-96.07
X166.866Y-81.72
X167.416Y-87.52
X167.416Y-143.72
X167.666Y-80.97
X168.766Y-86.22
X168.966Y-122.57
X169.316Y-80.27
X169.416Y-94.47
X169.616Y-74.32
X170.366Y-86.47
X170.666Y-124.27
X170.766Y-84.82
X171.766Y-68.82
X172.266Y-127.97
X172.966Y-82.62
X173.166Y-87.87
X173.266Y-73.47
X173.966Y-119.32
X174.716Y-109.02
X175.016Y-89.62
X175.166Y-74.27
X175.516Y-93.37
X176.216Y-69.32
X176.516Y-130.57
X177.116Y-93.37
X177.866Y-128.77
X178.216Y-75.27
X178.966Y-128.77
X179.016Y-91.82
X179.016Y-112.97
X180.966Y-75.32
X183.466Y-77.42
X184.566Y-77.42
X185.166Y-120.97
X185.166Y-125.82
X186.066Y-74.77
X186.266Y-125.52
X186.266Y-130.07
X188.316Y-94.02
X190.616Y-96.32
X200.816Y-80.42
T3
X65.183Y-120.442
X65.36Y-99.385
X65.437Y-110.053
X65.767Y-88.92
X67.697Y-124.303
X67.9Y-114.016
X67.951Y-103.424
X68.256Y-92.934
X70.237Y-124.303
X70.44Y-114.016
X70.491Y-103.424
X70.796Y-92.934
X72.777Y-124.303
X72.98Y-114.016
X73.031Y-103.424
X73.336Y-92.934
X75.343Y-120.442
X75.52Y-99.385
X75.597Y-110.053
X75.927Y-88.92
X76.28Y-117.091
X78.349Y-120.904
X78.506Y-92.125
X78.756Y-102.846
X80.889Y-120.904
X81.128Y-95.945
X81.139Y-107.045
X83.429Y-120.904
X83.668Y-95.945
X83.679Y-107.045
X86.208Y-95.945
X86.219Y-107.045
X86.44Y-117.091
X88.666Y-92.125
X88.916Y-102.846
X90.821Y-108.202
X90.821Y-118.362
X91.469Y-92.231
X93.732Y-102.662
X93.965Y-96.257
X94.777Y-110.765
X94.777Y-113.305
X94.777Y-115.845
X95.967Y-106.319
X96.505Y-96.257
X98.507Y-106.319
X99.045Y-96.257
X101.047Y-106.319
X101.629Y-92.231
X102.769Y-95.589
X103.892Y-102.662
X105.299Y-99.665
X105.861Y-108.202
X105.861Y-118.362
X107.839Y-99.665
X109.934Y-110.445
X109.934Y-112.985
X109.934Y-115.525
X110.379Y-99.665
X112.929Y-95.589
X122.098Y-95.519
X124.891Y-99.411
X127.431Y-99.411
X129.971Y-99.411
X132.258Y-95.519
X165.686Y-75.074
X173.306Y-75.074
X176.643Y-75.108
X184.263Y-75.108
X189.135Y-75.331
X196.755Y-75.331
X199.803Y-75.331
X207.423Y-75.331
T4
X71.41Y-143.251
X73.162Y-66.822
X74.91Y-143.251
X76.662Y-66.822
X78.41Y-143.251
X81.899Y-66.721
X83.599Y-143.175
X85.399Y-66.721
X87.099Y-143.175
X90.688Y-66.822
X92.289Y-143.124
X94.188Y-66.822
X95.789Y-143.124
X99.289Y-143.124
X101.231Y-66.975
X104.046Y-143.149
X104.731Y-66.975
X107.546Y-143.149
X108.231Y-66.975
X113.98Y-143.175
X115.681Y-66.924
X117.48Y-143.175
X119.181Y-66.924
X120.98Y-143.175
X124.317Y-66.975
X126.096Y-143.099
X127.817Y-66.975
X129.596Y-143.099
X133.096Y-143.099
X134.858Y-66.949
X138.358Y-66.949
X140.165Y-143.149
X143.443Y-66.949
X143.665Y-143.149
X146.943Y-66.949
X148.649Y-143.149
X152.149Y-143.149
X154.188Y-67.076
X157.688Y-67.076
X158.529Y-143.099
X162.029Y-143.099
X164.551Y-67.127
X168.051Y-67.127
X169.121Y-142.972
X172.621Y-142.972
X174.762Y-67.0
X177.91Y-142.87
X178.262Y-67.0
X181.41Y-142.87
X183.347Y-66.949
X186.847Y-66.949
X192.11Y-66.772
X195.61Y-66.772
X200.771Y-66.848
X204.271Y-66.848
T5
X75.063Y-75.306
X75.19Y-80.488
X77.603Y-75.306
X77.73Y-80.488
X79.838Y-135.123
X80.143Y-75.306
X80.27Y-80.488
X82.378Y-135.123
X82.683Y-75.306
X82.81Y-80.488
X84.334Y-128.748
X84.918Y-135.123
X85.223Y-75.306
X85.35Y-80.488
X86.874Y-128.748
X87.458Y-135.123
X87.763Y-75.306
X87.89Y-80.488
X89.414Y-128.748
X89.998Y-135.123
X90.303Y-75.306
X90.43Y-80.488
X91.954Y-128.748
X92.538Y-135.123
X92.843Y-75.306
X92.97Y-80.488
X94.494Y-128.748
X95.078Y-135.123
X96.958Y-75.382
X97.034Y-80.488
X97.034Y-128.748
X97.618Y-135.123
X99.498Y-75.382
X99.574Y-80.488
X101.784Y-134.818
X102.038Y-75.382
X102.114Y-80.488
X102.114Y-128.748
X104.324Y-134.818
X104.578Y-75.382
X104.654Y-80.488
X104.654Y-128.748
X106.864Y-134.818
X107.118Y-75.382
X107.194Y-80.488
X107.194Y-128.748
X109.404Y-134.818
X109.658Y-75.382
X109.734Y-80.488
X109.734Y-128.748
X111.944Y-134.818
X112.198Y-75.382
X112.274Y-80.488
X112.274Y-128.748
X114.484Y-134.818
X114.738Y-75.382
X114.814Y-80.488
X114.814Y-128.748
X117.024Y-134.818
X117.354Y-128.748
X119.564Y-134.818
X119.615Y-75.535
X119.894Y-80.488
X119.894Y-128.748
X122.155Y-75.535
X122.434Y-80.488
X124.695Y-75.535
X124.796Y-134.996
X124.974Y-80.488
X124.974Y-128.748
X127.235Y-75.535
X127.336Y-134.996
X127.514Y-80.488
X127.514Y-128.748
X129.775Y-75.535
X129.876Y-134.996
X130.054Y-80.488
X130.054Y-128.748
X132.315Y-75.535
X132.416Y-134.996
X132.594Y-80.488
X132.594Y-128.748
X134.855Y-75.535
X134.956Y-134.996
X135.134Y-80.488
X135.134Y-128.748
X137.395Y-75.535
X137.496Y-134.996
X137.674Y-80.488
X137.674Y-128.748
X140.036Y-134.996
X140.214Y-128.748
X142.576Y-134.996
X142.754Y-128.748
X145.294Y-80.488
X145.294Y-83.028
X145.294Y-85.568
X145.294Y-88.108
X145.294Y-90.648
X145.294Y-93.188
X145.294Y-95.728
X145.294Y-98.268
X145.294Y-100.808
X145.294Y-103.348
X145.294Y-105.888
X145.294Y-108.428
X145.294Y-110.968
X145.294Y-113.508
X145.294Y-116.048
X145.294Y-118.588
X145.294Y-121.128
X145.294Y-123.668
X147.834Y-80.488
X147.834Y-83.028
X147.834Y-85.568
X147.834Y-88.108
X147.834Y-90.648
X147.834Y-93.188
X147.834Y-95.728
X147.834Y-98.268
X147.834Y-100.808
X147.834Y-103.348
X147.834Y-105.888
X147.834Y-108.428
X147.834Y-110.968
X147.834Y-113.508
X147.834Y-116.048
X147.834Y-118.588
X147.834Y-121.128
X147.834Y-123.668
X156.699Y-80.589
X156.699Y-83.129
X156.699Y-85.669
X156.699Y-88.209
X156.699Y-90.749
X156.699Y-93.289
X156.699Y-95.829
X156.699Y-98.369
X156.699Y-100.909
X156.699Y-103.449
X156.699Y-105.989
X156.699Y-108.529
X156.699Y-111.069
X156.699Y-113.609
X156.699Y-116.149
X156.699Y-118.689
X156.699Y-121.229
X156.699Y-123.769
X159.239Y-80.589
X159.239Y-83.129
X159.239Y-85.669
X159.239Y-88.209
X159.239Y-90.749
X159.239Y-93.289
X159.239Y-95.829
X159.239Y-98.369
X159.239Y-100.909
X159.239Y-103.449
X159.239Y-105.989
X159.239Y-108.529
X159.239Y-111.069
X159.239Y-113.609
X159.239Y-116.149
X159.239Y-118.689
X159.239Y-121.229
X159.239Y-123.769
X187.763Y-80.996
X187.763Y-83.536
X187.763Y-86.076
X187.763Y-88.616
X187.763Y-91.156
X197.923Y-126.004
X200.463Y-126.004
X203.003Y-126.004
X205.543Y-126.004
X208.083Y-126.004
X210.623Y-126.004
X213.163Y-126.004
X223.78Y-78.024
X223.78Y-80.564
X223.78Y-83.104
X223.78Y-85.644
X224.009Y-100.452
X224.009Y-102.992
X224.009Y-105.532
X224.009Y-108.072
X224.009Y-110.612
X224.009Y-113.152
T6
X173.539Y-90.089
X183.699Y-90.089
T7
X229.063Y-124.633
X229.063Y-132.253
T0
M30
